<svg version="1.2" xmlns="http://www.w3.org/2000/svg" viewBox="0 0 652 502" width="652" height="502"><style>.a{fill:#bda38b}.b{opacity:1;fill:#25c3e5}.c{fill:#9ba890}</style><path fill-rule="evenodd" class="a" d="m325.1 85c7.3-0.1 12.3 0.2 18.5 1 4.6 0.6 10.8 1.6 13.7 2.2 2.9 0.6 8 1.9 11.3 2.9 3.4 1 8.3 2.7 11.1 3.7 2.8 1 8.8 3.7 13.4 6 4.7 2.3 11.7 6.3 15.6 8.9 3.9 2.5 8.9 6.1 11.1 7.8 2.1 1.8 6.1 5.2 8.7 7.6 2.6 2.5 6.8 6.8 9.4 9.5 2.5 2.8 7.1 8.3 10 12.2 3 3.9 6.7 9.4 8.3 12.2 1.7 2.7 4.4 7.9 6.1 11.3 1.8 3.5 4.5 9.8 6.1 14.1 1.6 4.2 3.5 9.7 4.3 12.1 0.7 2.5 1.9 7.5 2.6 11.1 0.7 3.7 1.8 10.1 2.3 14.3 0.5 4.6 0.9 11.6 0.9 17.2 0 5.2-0.3 12.2-0.7 15.4-0.3 3.2-1.1 8.5-1.7 11.9-0.6 3.3-1.8 9.1-2.8 12.9-1 3.8-2.6 9.1-3.7 11.9-1.1 2.8-4.1 9.2-6.6 14.3-2.6 5.1-6.1 11.5-7.9 14.3-1.8 2.7-5.3 7.7-7.8 11.1-2.5 3.3-7.8 9.4-11.7 13.4-3.9 4-9.3 9-11.9 11.2-2.6 2.1-6.9 5.3-9.5 7.2-2.6 1.9-6.7 4.6-9.2 6.1-2.5 1.5-6.4 3.6-8.7 4.8-2.3 1.2-6.7 3.2-9.7 4.5-3.1 1.3-7.7 3.1-10.3 4.1-2.6 0.9-7.9 2.4-11.6 3.4-3.8 1-9.7 2.3-13.2 2.9-3.5 0.6-10.1 1.4-14.8 1.8-5.7 0.5-10.9 0.6-16.3 0.3-4.4-0.2-10.2-0.6-12.9-1-2.8-0.3-7.9-1.2-11.4-1.9-3.4-0.7-9.1-2.1-12.6-3.1-3.5-1.1-8.6-2.8-11.4-3.8-2.7-1.1-8.8-3.7-13.4-6-4.6-2.2-11.3-5.9-14.8-8.1-3.4-2.2-9.1-6.2-12.6-8.8-3.5-2.7-8.6-6.9-11.3-9.4-2.7-2.6-7.4-7.6-10.5-11.3-3-3.6-7.8-10-10.7-14.3-3.7-5.3-6.8-10.7-10.2-17.7-2.7-5.5-5.9-12.8-7-16.1-1.2-3.3-2.6-7.8-3.2-9.8-0.6-2-1.6-6.1-2.2-9-0.6-2.9-1.4-8.1-1.9-11.6-0.4-3.5-0.9-9.8-1.1-14-0.2-4.6-0.1-10.7 0.3-15.1 0.4-4.1 1.1-10.5 1.7-14.3 0.5-3.8 1.7-9.7 2.5-13.2 0.9-3.5 2.7-9.6 4.1-13.5 1.3-3.9 3.7-10 5.3-13.5 1.5-3.5 4-8.5 5.5-11.1 1.5-2.6 4.3-7.1 6.2-10 1.9-3 5.7-8.2 8.5-11.7 2.8-3.5 7.9-9.2 11.4-12.7 3.4-3.5 8.9-8.4 12.1-11 3.2-2.5 8-6.1 10.8-8 2.7-1.8 7.4-4.7 10.3-6.3 2.9-1.6 8.1-4.3 11.6-5.8 3.4-1.6 8.6-3.7 11.5-4.8 2.9-1 8.3-2.7 11.9-3.7 3.6-1 9.1-2.2 12.1-2.7 3.1-0.5 7.9-1.2 10.8-1.6 2.9-0.3 9.8-0.7 15.3-0.7zm-22.1 10.3c-2.9 0.4-9 1.8-13.5 2.9-4.4 1.2-11.4 3.4-15.5 5.1-4.1 1.6-9.8 4.1-12.7 5.6-2.9 1.4-7.4 3.9-10 5.6-2.6 1.6-6.4 4.1-8.4 5.5-2 1.5-5.4 4-7.4 5.7-2 1.6-5.7 4.9-8.1 7.1-2.5 2.3-6.4 6.5-8.8 9.3-3.6 4.1-4.3 5-3.5 5.3 0.5 0.2 1.9 0.6 3 0.9 1.2 0.3 3.1 1.3 4.4 2.2 1.2 0.9 2.5 2.3 2.9 3.1 0.5 0.8 1.4 3.9 2.2 7 0.7 3 1.9 6.4 2.7 7.5 0.7 1.1 2.4 2.7 3.8 3.6 1.3 0.8 3.6 1.8 5.1 2.1 2.1 0.5 3.8 0.4 8.2-0.3 3-0.5 7.8-1 10.6-1.2 2.8-0.2 5.2-0.5 5.4-0.8 0.2-0.2-0.9-1.3-2.5-2.4-1.5-1.1-4.7-3.2-7.2-4.7l-4.5-2.7-11.6-0.5c-4.5-4.8-4.6-5.1-3.7-5.4 0.6-0.2 2.2-0.5 3.6-0.7 2.2-0.3 2.7-0.2 4.3 1.2 1 0.9 2.2 1.6 2.7 1.6q0.8 0 0.8-1.6c0-0.8-0.4-2.4-0.8-3.5-0.6-1.6-1.4-2.4-3.8-3.7-1.7-0.9-3.5-2-4-2.5-0.7-0.6-0.9-1.7-0.9-3.8 0-2.9 0-2.9 1.4-2.6 0.8 0.2 2.3 0.9 3.3 1.5 1 0.6 2.1 1.9 2.5 2.9 0.4 0.9 1.6 2.6 2.7 3.7 1.5 1.5 2.2 2.7 2.7 4.9 0.4 1.6 1 3.2 1.3 3.6 0.3 0.4 1.9 1.7 3.6 2.8 1.7 1.1 3.2 2 3.3 2 0.1 0 0.3-1.6 0.3-3.5 0-2 0.3-5.5 0.8-7.9 0.8-3.9 0.8-4.3 0-6.4-0.4-1.3-0.8-2.6-0.8-3.1 0-0.4 0.5-2 1.1-3.4 0.7-1.5 1.4-2.7 1.5-2.7 0.1 0 0.9 1 1.7 2.3 0.9 1.4 1.5 2.9 1.5 4.1 0 1-0.4 2.8-0.8 4-0.4 1.1-0.8 4.7-1 7.9-0.4 5.6-0.3 5.9 1.1 8.7 0.7 1.6 2.6 4.1 4.1 5.6 1.4 1.5 4.9 4.3 7.6 6.2 2.8 2 5.2 3.6 5.4 3.6 0.3 0 0.4-2 0.4-4.4 0-2.4 0.5-7.1 1.1-10.4 0.6-3.4 1-8.2 1-10.8 0-4.4 0-4.8-2.6-10-1.5-3-2.6-5.8-2.6-6.4 0-0.5-0.5-1.8-1-2.9-0.6-1.1-1.5-2.3-2-2.8-0.5-0.5-2.1-1.2-3.4-1.7-1.3-0.4-3.5-1.1-4.9-1.5-1.5-0.4-3.3-1.3-4-2.1-0.7-0.7-1.5-2.1-1.7-3.1-0.3-1-0.4-2.8-0.4-3.8 0-1.1 0.1-2 0.4-1.9 0.2 0.1 1.6 0.9 3.1 1.7 2.3 1.3 3 2.1 3.9 4.1 0.8 2 1.3 2.5 2.2 2.5 0.6 0.1 2.1 0.5 3.3 1 1.1 0.6 2.8 1.6 3.7 2.4 0.8 0.7 1.7 1.2 2 1 0.2-0.2 0.4-1 0.4-1.7-0.1-0.7 0.6-2.6 1.4-4.2 1-2 2.4-3.8 4.6-5.5 2.4-1.9 3.1-2.8 3-3.7 0-0.6-0.3-2.2-0.4-3.5-0.3-2.1-0.2-2.7 1.2-4.4 1-1.5 2.1-2.2 3.6-2.6 1.2-0.3 2.2-0.4 2.4-0.2 0.1 0.2-0.1 0.9-0.4 1.6-0.4 0.7-0.7 1.7-0.7 2.1 0 0.5-0.6 1.7-1.3 2.8-0.7 1.1-1.3 2.4-1.3 2.9 0 0.5 0.3 0.9 0.6 0.9 0.4 0 1.4-0.4 2.3-1 0.8-0.5 2.8-1.1 4.3-1.3 2.1-0.2 2.8-0.1 2.8 0.3 0 0.4-0.5 1.5-1.2 2.6-0.7 1-1.8 2.1-2.5 2.5-0.8 0.4-2.3 0.5-4 0.3-2.6-0.4-2.6-0.3-5.4 2.2-1.9 1.7-3.4 3.9-4.6 6.3-1.6 3.1-1.9 4.3-1.9 7.4 0 3.1 0.2 4.3 1.5 6.8 0.8 1.7 1.6 3 1.7 3 0.2 0.1 0.7-0.8 1.2-1.9 0.6-1.1 1.5-2.8 2.2-3.6l1.3-1.6c2 5.5 2 6 1.3 7.7-0.4 1-1.3 2.4-2 3.1-1.1 1.1-1.3 1.9-1.3 4.3v2.9c2.7-3.3 6-6.2 8.9-8.5 3-2.3 5.8-4.9 6.4-5.8 0.9-1.6 0.9-1.7-0.1-3.5-0.7-1.3-0.9-2.4-0.7-3.7 0.2-1 0.8-2.6 1.3-3.5 0.6-1 1.3-1.6 1.6-1.5 0.3 0.2 1 1.2 1.6 2.4 0.5 1.2 1 2.8 1 3.7 0 0.9-0.3 2.2-0.7 3-0.4 0.8-0.9 2.4-1.1 3.5-0.3 1.8-0.2 2 0.9 2 0.6 0 2.1-0.3 3.3-0.6 1.2-0.4 3-1.4 4.1-2.3 1.1-0.9 2-1.9 2-2.2 0-0.3 0.4-1 0.9-1.5 0.6-0.6 1.5-2.5 2.1-4.3l1-3.2c-2.7-6.9-4.1-9.5-4.7-10.1-0.7-0.7-1.4-1.2-1.6-1.2-0.2 0-1.2-0.6-2.2-1.2-1-0.7-2-1.8-2.3-2.5-0.3-0.8-0.7-2.1-0.9-3.1-0.1-0.9-0.1-1.7 0-1.7 0.2 0 1.3 0.8 2.5 1.7 1.4 1 2.6 1.5 3.2 1.3 0.7-0.3 0.9-0.8 0.6-2.9-0.1-1.3 0.1-3.3 0.4-4.3 0.5-1.3 1.3-2.1 2.7-2.8 1.1-0.5 2.2-0.8 2.5-0.7 0.3 0.2 0.5 1.6 0.5 3.2 0 2.6-0.2 3.1-1.8 4.9-1.2 1.2-1.9 2.5-1.9 3.4 0 0.8 0.3 2 0.6 2.7 0.3 0.6 1.1 1.8 1.8 2.5 0.7 0.7 1.8 2.5 2.4 4 0.8 1.8 1.1 3.7 1.1 6.1 0 1.8-0.4 4.5-0.9 5.8-0.4 1.3-1.4 3.3-2 4.5-0.7 1.2-2.5 2.9-4.1 4-1.6 1-5.8 3.1-9.4 4.5-4.5 1.8-7.4 3.3-9.5 5-1.6 1.3-3.8 3.7-4.9 5.3-1.1 1.6-2.8 4.6-3.7 6.8-1.5 3.7-1.6 4.6-1.9 11.4-0.2 5.9 0 8.3 0.7 11.6 0.5 2.4 2 6.3 3.2 8.8 1.6 3.1 3.1 5.3 5.2 7.2 1.6 1.6 3.1 2.7 3.2 2.5 0.2-0.1-0.4-1.5-1.3-3.1-0.9-1.6-1.5-3.2-1.4-3.6 0.2-0.4 0.6-1.9 1.1-3.4 0.5-1.6 1-2.8 1.2-2.8 0.2 0 1.3 1.2 2.4 2.5 2 2.4 2 2.6 1.8 5.7-0.3 2.9-0.2 3.3 1.2 5.4 0.9 1.2 3.4 3.6 5.7 5.1 2.2 1.6 4.3 2.9 4.5 3 0.2 0 0.4-0.8 0.4-1.7 0-1 0.4-4.4 0.8-7.6 0.5-3.2 0.8-6.6 0.6-7.7-0.2-1-0.9-2.6-1.4-3.5-0.6-1-2.4-2.7-4.1-3.8-2.3-1.5-3.1-2.4-3.4-3.7-0.3-0.9-0.8-1.9-1.2-2.3-0.4-0.4-1.2-1-1.7-1.5-0.8-0.6-1.1-1.7-1.4-4.7-0.2-2.2-0.3-4.1-0.3-4.1 0.1-0.1 1.4 0.3 2.8 1 1.4 0.7 3.1 1.8 3.6 2.5 0.8 1.1 1 2 0.9 4.7l-0.2 3.3c4 2.3 6.1 4 7.2 5.3 1.1 1.3 2 2.6 2 3 0 0.4 0.2 0.6 0.4 0.5 0.2-0.1 1.6-2.5 3.1-5.3l2.8-5.1c0-9.6-0.2-13.3-0.5-14.4-0.3-1.1-1.2-2.8-2-3.7-0.8-0.9-3.2-2.5-5.3-3.4-2.4-1.1-4.1-2.3-4.7-3.2-0.5-0.8-1-2.6-1.2-4-0.2-2.2-0.1-2.5 0.7-2.5 0.5 0 2 0.5 3.3 1 1.3 0.6 2.5 1.4 2.7 1.8 0.2 0.3 0.5 1.4 0.7 2.4 0.2 1.5 0.6 1.9 2.6 2.6 1.3 0.4 2.8 1.1 3.3 1.6 0.5 0.5 1.3 1.6 1.6 2.4l0.7 1.4c2.8-3.4 4.7-4.9 6-5.5 1.7-0.8 2.4-1.5 2.8-2.7 0.2-0.9 0.8-2 1.3-2.6 0.5-0.5 1.8-1.4 2.9-1.9 1.1-0.6 2.4-1 2.9-1.1 0.8 0 0.9 0.4 0.5 2.7-0.2 1.5-0.7 3.3-1.2 4.1-0.4 0.8-1.4 1.8-2.2 2.3-0.8 0.5-2.3 1.1-3.3 1.3-1 0.2-2.6 1.1-3.6 2-1 0.9-2.1 2.4-2.6 3.3-0.7 1.2-0.9 3-0.9 9 0 4.7 0.3 7.9 0.7 8.9 0.4 0.9 1.5 3.2 2.6 5.1 1.7 3 1.9 3.3 2.5 2.4 0.3-0.6 1.4-2 2.4-3.1 1-1.2 2.8-2.7 4.1-3.4 1.2-0.7 2.2-1.5 2.2-1.9 0-0.3 0.1-1.8 0.2-3.3 0.1-1.4 0.4-3.1 0.7-3.7 0.3-0.6 1.8-1.7 3.3-2.5 1.4-0.8 2.8-1.4 2.9-1.3 0.2 0 0.2 1.8 0 3.8-0.3 3.3-0.6 3.9-2.1 5.3-1.2 1.1-1.8 2.2-1.9 3.4-0.2 1.4-0.6 2.1-2.1 3-1 0.7-2.5 1.8-3.3 2.4-0.9 0.7-2.1 2.3-2.6 3.6-0.9 2.1-1 3-0.6 6.9 0.2 2.5 0.5 6.4 0.7 8.6l0.3 4.1c6.9-4.7 9.5-6.9 10.2-7.9 1.3-1.6 1.4-2.2 1.3-5.7l-0.2-3.9 4.7-5c1.4 5.1 1.6 7 1.4 8-0.2 0.8-0.8 2.3-1.4 3.3-0.5 0.9-0.9 1.9-0.8 2.2 0 0.3 0.9 0.1 1.8-0.5 1-0.6 2.8-2.6 4.1-4.4 1.3-1.8 3.2-5.3 4.2-7.8 1-2.5 2.2-6.5 2.7-9 0.6-3.2 0.8-5.9 0.6-9.5-0.2-3.5-0.7-6.3-1.6-9-0.8-2.2-2.5-5.5-3.8-7.4-1.2-1.9-3.2-4.3-4.3-5.4-1.1-1-3.6-2.7-5.4-3.8-1.9-1-5.4-2.6-7.8-3.5-2.4-0.9-5.8-2.5-7.5-3.7-1.8-1.2-3.2-2.4-3.2-2.8 0-0.3-0.5-1.2-1.2-1.9-0.9-1-1.3-2.2-1.7-6.3-0.3-3.6-0.3-5.7 0.1-7.2 0.4-1.2 1.7-3.8 3.1-5.9 1.3-2 2.3-4.3 2.3-5 0-0.8-0.9-2.3-2.2-3.7-2.1-2.3-2.1-2.4-1.8-5.3 0.2-1.6 0.5-3 0.6-3.2 0.1-0.1 1.2 0.4 2.2 1.1 1.1 0.8 2.4 2.2 2.9 3.2 0.7 1.5 0.7 2.4 0.3 4.7-0.2 1.6-0.3 3-0.1 3.1 0.1 0.1 1.8-0.8 3.8-1.9l3.5-2c-0.5 3.3-1.1 4.9-1.7 5.6-0.5 0.7-1.5 1.4-2.2 1.5-0.7 0.1-2.1 0.8-3.1 1.6-1.1 0.8-2.4 2.6-3.2 4.3-1 2.3-1.3 3.8-1.3 7.2 0 3.8 0.1 4.4 1.6 6.8 1 1.5 2.6 3.3 3.7 4.1 1.1 0.8 2.9 1.8 4 2.2 1.1 0.5 2.7 0.9 3.6 0.9 0.9 0 1.6-0.2 1.6-0.4 0-0.3-0.2-0.6-0.4-0.9-0.2-0.2-0.8-1.7-1.3-3.2-0.6-1.5-1-3.6-1-4.7 0-1.1 0.4-2.7 0.8-3.5 0.5-0.9 1.2-1.6 1.6-1.6 0.4 0 1.3 1.1 1.8 2.4 1 2.2 1 2.5 0.3 4.3-0.5 1.1-0.7 2.7-0.6 3.6 0.2 0.9 1.3 2.5 2.6 3.7 1.2 1.2 3.1 2.8 4.1 3.5 1 0.7 3.4 2.6 5.2 4.3 1.9 1.7 3.7 3 3.9 3 0.2 0 0.4-0.9 0.4-2.1 0-1.6-0.4-2.5-1.6-3.8-0.8-1-1.8-2.4-2.1-3.2-0.4-1.1-0.4-2 0.2-3.9 0.5-1.4 1-2.9 1.3-3.4 0.4-0.6 0.9 0 2.1 2.6 0.9 1.8 1.6 3.6 1.6 4.1 0 0.4 0.3 0.8 0.6 0.8 0.3 0 1.2-1.5 2.1-3.4 1-2.1 1.6-4.1 1.6-5.6 0-1.4-0.4-3.7-0.9-5.3-0.4-1.6-1.4-4.1-2.2-5.5-0.8-1.5-2.5-3.3-3.8-4.3-2-1.5-2.9-1.8-5.9-1.9-2.7-0.2-3.8-0.5-4.7-1.4-0.7-0.6-1.7-1.9-2.2-2.8-0.9-1.5-0.9-1.6 0-1.9 0.5-0.2 1.5-0.1 2.3 0.2 0.9 0.4 1.5 0.4 1.9-0.1 0.5-0.4 1-0.4 2 0.3 0.7 0.6 1.3 1.2 1.3 1.5 0 0.3 0.5 0.8 1.1 1.1 0.8 0.4 1.2 0.3 1.6-0.4 0.3-0.7 0-1.6-1.4-3.6-1.1-1.7-2-3.6-2.2-5.2l-0.4-2.5c4.1 1.6 5.8 2.7 6.5 3.4 0.7 0.8 1.2 2.1 1.2 3.1 0 0.9-0.4 2.4-0.8 3.2-0.6 1-0.7 1.7-0.3 2.5 0.3 0.6 0.8 1 1.1 1 0.3 0 1.7 1.2 3.2 2.6 1.5 1.3 3.2 3.5 3.9 4.9 0.6 1.3 1.3 3.1 1.5 4l0.3 1.8c3.9-2.7 6.3-3.8 7.8-4.2 2.5-0.5 2.8-0.8 3.3-2.3 0.3-1 1-2.3 1.7-2.9 0.7-0.6 2.1-1.5 3.2-2l2-0.8c0.5 2.7 0.4 4.2 0.2 5-0.2 0.9-1.3 2.5-2.4 3.6-1.1 1.1-2.7 2.1-3.5 2.2-0.8 0.1-2.4 0.4-3.6 0.6-1.2 0.1-2.9 1-4.1 1.8-1.6 1.3-2.1 2.3-3.1 5.4-0.6 2.2-2.1 5.9-3.4 8.4-2.3 4.3-2.4 4.6-2.4 9.2 0 2.7 0.4 6.8 0.9 9.3 0.5 2.5 1.1 6.8 1.3 9.7 0.1 2.9 0.5 5.4 0.8 5.5 0.3 0.1 2.3-1 4.5-2.5 2.2-1.4 5.3-3.8 6.8-5.2 1.6-1.4 3.8-4 4.8-5.7 1.8-3.1 1.8-3.1 1.7-8.8-0.1-3.1-0.4-6.7-0.7-8-0.3-1.2-0.7-3.4-0.8-4.8-0.2-2.1 0-3.1 0.8-4.4 0.6-1 1.3-1.7 1.6-1.7 0.3 0 0.9 0.5 1.3 1.2 0.5 0.6 1 2 1.2 3 0.2 1 0 3-0.4 4.5-0.5 2.2-0.5 3.2 0.3 6.6 0.6 2.7 0.8 5.1 0.6 7.6-0.2 1.9-0.2 3.5 0.1 3.5 0.2 0.1 1.8-1 3.6-2.3 2.3-1.7 3.4-2.9 3.6-3.9 0.2-0.8 0.7-2.5 1.1-3.7 0.5-1.5 1.5-2.8 2.9-4 1.2-0.9 2.6-2.6 3.2-3.7 0.7-1.3 1.7-2.3 3.2-3 1.3-0.6 2.6-1 2.9-1.1q0.7 0 0.7 2.7c0 2.2-0.3 2.9-1.6 4.2-0.9 0.9-2.5 1.8-3.6 2.1-1.1 0.3-2.4 0.8-2.9 1.2-0.6 0.4-1.3 2-1.7 4.1-0.4 1.9-0.6 3.6-0.4 3.7 0.1 0.2 0.5 0 0.9-0.2 0.4-0.3 1.4-1.1 2.2-1.6 1.1-0.8 2.4-1.1 4.5-1.1 1.7 0 3.3 0.2 3.6 0.5 0.4 0.4 0.1 1.2-1 2.8-1.4 1.9-2 2.3-4.2 2.8-1.5 0.3-4 0.5-5.6 0.5-2.2 0-3.7 0.4-6.2 1.7-1.8 0.9-4.6 2.5-6.2 3.5-1.6 1-3.5 2.4-4.3 3.2-1.4 1.3-1.4 1.4-0.6 1.8 0.6 0.2 2.2 0.3 3.6 0.4 1.5 0 5.5 0.5 9 1 4.8 0.8 7 1 9.5 0.6 1.7-0.2 3.7-0.7 4.5-1 0.7-0.2 2.1-1.1 3.1-2 0.9-0.8 2.3-2.6 3.1-3.9 0.7-1.3 1.9-4.6 2.6-7.4 0.7-3 1.7-5.7 2.5-6.7 0.7-1 2.5-2.5 4.1-3.3 1.5-0.9 3.3-1.6 4.1-1.6 0.7 0 1.6-0.2 1.9-0.4 0.4-0.3-0.8-2.1-3.7-5.4-2.4-2.8-6.4-7-8.8-9.3-2.5-2.2-6.1-5.5-8.2-7.1-2-1.7-5.3-4.2-7.3-5.7-2.1-1.4-5.9-3.9-8.5-5.5-2.6-1.7-7.1-4.2-10-5.6-2.9-1.5-8.2-3.9-11.9-5.3-3.6-1.5-8.7-3.4-11.3-4.1-2.6-0.8-7.5-2-10.8-2.7-3.3-0.8-8.4-1.7-11.3-2.1-2.9-0.5-10.4-0.9-16.6-1-6.3-0.1-13.4 0-15.9 0.2-2.4 0.3-6.8 0.9-9.7 1.4zm-94.2 59c-1.3 1.8-3.9 5.9-5.7 8.9-1.9 3.1-4.7 8.3-6.2 11.6l-2.9 6.1c3.4 3.3 5.2 4.3 7.4 5 1.8 0.6 4.3 1.1 5.6 1.1 1.6 0 2.4-0.2 2.4-0.7 0-0.3-1.5-2-3.4-3.8-3.4-3.1-3.4-3.2-3.4-5.9 0-2.6 0.1-2.8 1.1-2.8 0.7 0 2.2 0.6 3.5 1.3 1.9 1.1 2.3 1.8 3 4.1 0.4 1.5 1 3 1.2 3.4 0.2 0.3 1.2 1 2.2 1.5 1.5 0.8 3.1 1 7.5 1l5.5 0.1c7.7-3.9 10.6-5.5 11.3-6l1.3-1c-4.1-1.4-6.6-2.6-8.3-3.6l-3-1.9c-6.8 0.9-8.8 0.9-10.1 0.5-1-0.3-2.3-0.8-3-1.3-0.6-0.4-1.9-1.8-2.8-3.1-0.8-1.3-1.5-2.5-1.5-2.7 0-0.1 0.6-0.4 1.4-0.5 0.8-0.2 2.7-0.1 4.1 0.2 2.1 0.4 3 0.9 4.2 2.4 1.5 1.8 1.7 1.9 3.9 1.5 1.7-0.3 2.1-0.6 1.9-1.2-0.2-0.4-1.1-3.4-2-6.6-0.9-3.5-2-6.3-2.6-7.1-0.7-0.7-2.1-1.7-3.3-2.3-1.1-0.6-3.2-1.2-4.5-1.3l-2.3-0.3zm221 0.8c-0.6 0.9-1.3 2.5-1.6 3.7-0.3 1.1-1 3.8-1.5 5.9q-1 3.8-0.4 4.4c0.3 0.3 1.4 0.6 2.5 0.8 1.8 0.2 2 0.1 2.7-1.4 0.5-0.9 1.6-1.9 2.7-2.3 1-0.5 2.9-0.8 4.2-0.8 1.3 0 2.5 0.2 2.6 0.5 0.2 0.3-0.7 1.8-1.8 3.4-1.2 1.6-2.8 3.2-3.6 3.5-0.8 0.3-2.6 0.6-4.1 0.6-1.4 0-3.7-0.3-5-0.6-2.1-0.6-2.5-0.5-3.9 0.6-0.9 0.6-3.5 2.1-5.8 3.2-2.4 1.2-4 2.2-3.7 2.5 0.3 0.2 2.2 1.4 4.2 2.6 2 1.2 5 2.6 6.6 3.1 1.6 0.5 4.4 0.9 6.3 0.9 2.8 0 4-0.3 6.6-1.6 2.9-1.4 3.3-1.8 4.8-5 1.4-2.9 2-3.6 4-4.6l2.3-1.2c0.2 4.9 0 6.8-0.3 7.4-0.3 0.6-1.3 1.5-2.2 1.9-1 0.5-2.4 1.5-3.2 2.3-0.8 0.7-1.4 1.5-1.4 1.8 0 0.2 1.2 0.3 2.7 0.4 1.6 0 4.2-0.4 5.8-0.8 1.7-0.5 4.1-1.5 5.3-2.3 1.2-0.9 2.4-2 2.7-2.6 0.3-0.7-0.6-2.9-3.3-8.4-2-4-5.8-10.6-8.5-14.6l-4.7-7.3c-3.5 0-5.7 0.6-7.2 1.2-1.5 0.7-3.2 2-3.8 2.8zm-180.1 23.5c-1.8 0.6-5.3 2.4-8 4-2.6 1.6-6 3.6-7.6 4.4-1.6 0.9-4.2 1.9-5.8 2.4-2 0.6-6.3 1-14.2 1.3-9.2 0.4-11.8 0.4-13.7-0.3-1.3-0.4-3-1.1-3.8-1.6-0.8-0.5-2.2-1.5-3-2.1l-1.7-1.2c-3.2 10-4.7 14.9-5.3 17.4-0.6 2.5-1.4 6.1-1.8 8-0.4 1.8-0.5 3.6-0.3 3.8 0.1 0.2 0.7-0.2 1.1-0.8 0.5-0.7 2.5-2.3 4.5-3.6 2-1.4 4.9-2.9 6.3-3.3 1.5-0.5 2.9-0.9 3.3-0.9 0.4 0 1.3-0.3 2.1-0.6l1.5-0.5c-1.9-1.2-2.6-2.4-2.9-3.5-0.3-1.1-0.4-3-0.2-4.2l0.4-2.3c4 2.2 5.4 3.4 5.7 3.9 0.3 0.6 0.7 2.2 0.9 3.5l0.3 2.3c7.9 1.9 11 2.8 12 3.3 0.9 0.5 3.9 2.4 6.7 4.2 2.7 1.8 6 3.8 7.2 4.4 1.3 0.6 2.9 1.1 3.6 1.1h1.3c-2-6.7-3-9-3.5-9.4-0.5-0.3-2.9-1.2-5.3-2-3.8-1.1-4.5-1.5-5.7-3.3-0.7-1-1.5-2.8-1.7-3.7l-0.4-1.9c6 0.6 7.2 1 8.1 1.9 0.7 0.7 1.6 2 2 3 0.5 1.2 1.2 1.8 2.4 2.1l1.7 0.4c0.9-4.1 1.7-6.3 2.3-7.4l1.1-2.2c3.1 6.9 3.2 7 2.4 9.6-0.5 1.4-0.7 3.9-0.6 5.6 0.1 2.1 0.7 4.1 2.3 7.4 1.6 3.3 2.9 5.1 5 6.9 1.6 1.4 3.9 3.1 5.2 3.8 1.3 0.8 4.2 1.6 6.3 2 2.2 0.3 5.1 0.5 6.5 0.3 1.4-0.2 2.5-0.6 2.5-0.8 0-0.2-1.5-1.2-3.3-2.2-1.8-1.1-4.6-3.5-6.6-5.6-1.8-2-4.1-5.1-4.9-6.9-1.4-2.8-1.6-3.7-1.6-8.2 0-3.6 0.3-5.8 1.1-8.2 0.9-2.6 1-3.5 0.6-5.4-0.3-1.2-0.6-2.6-0.6-3.1 0-0.7 0.6-0.4 2.1 1.1 2 1.9 2.3 2.1 2.8 1.3 0.4-0.5 1.1-1.6 1.6-2.5 0.5-0.9 1.7-2 2.7-2.5 1-0.4 2.5-0.7 3.3-0.7 0.8 0 1.8 0.1 2.1 0.4 0.4 0.2 0.1 1.2-1.1 3.5-1.4 2.8-1.9 3.2-3.9 3.8-1.2 0.4-2.7 1.2-3.3 1.9-0.6 0.7-1.5 2-2 3-0.6 1.1-1.2 3-1.4 4.3-0.2 1.3-0.1 3.8 0.2 5.5 0.4 1.8 1.2 4.1 1.9 5.2 0.7 1.1 1.6 2 1.9 2 0.3 0 0.4-1 0.2-2.5-0.3-2.4-0.2-2.7 1.8-5.3 1.2-1.6 2.4-2.7 2.7-2.5 0.3 0.1 0.9 1.5 1.3 3 0.7 2.1 0.7 3.2 0.3 4.4-0.3 0.8-1.4 2.3-2.5 3.2l-2 1.6c3.4 3.6 5.6 5.2 7.2 5.9 2.7 1.2 3.2 1.3 10.5 1 4.2-0.2 9.3-0.5 11.3-0.7 2.6-0.2 4.8-0.1 7.4 0.5 2.1 0.5 4.8 1.6 6.3 2.6 1.4 1 3.5 2.8 4.7 4.1 1.1 1.3 2.6 3.6 3.3 5 0.6 1.5 1.8 5.2 2.5 8.2 0.7 3.1 1.7 6.5 2.1 7.6 0.5 1.1 1 2 1.2 2 0.3 0 0.6-2.5 0.9-5.5 0.2-3.3 0.2-6.8-0.2-9-0.3-1.9-1.1-5.4-1.8-7.6-0.7-2.3-2-5.2-2.8-6.5-0.9-1.3-2.9-3.7-4.7-5.3-1.7-1.6-5.2-4.3-7.8-6-2.6-1.7-6-4-7.6-5.1-1.6-1-4.4-3.5-6.3-5.6-2.7-2.8-4.4-5.5-7.2-10.8-2-3.9-4.6-8.3-5.7-9.6-1.4-1.8-3-3.1-5.3-4.2-1.8-0.8-4.6-1.8-6.1-2.1-1.6-0.3-4.1-0.5-5.6-0.4-1.4 0-3.3 0.2-4.2 0.3-0.9 0.1-3 0.6-4.7 1.2zm131.8 0.8c-1.5 0.7-3.6 2.2-4.7 3.3-1.3 1.2-3.3 4.5-5.5 8.8-1.9 3.8-4.2 8-5.1 9.3-0.9 1.3-2.9 3.7-4.5 5.2-1.6 1.6-6.6 5.3-11.1 8.3-4.5 2.9-9.3 6.6-10.8 8-1.4 1.5-3.4 4.2-4.3 6.1-0.9 1.8-2 4.8-2.5 6.5-0.5 1.8-1 6.3-1.2 10.1-0.2 3.7-0.2 7.7 0 8.8 0.2 1.1 0.6 2 0.9 2 0.3 0 1-1.3 1.6-2.9 0.6-1.6 1.6-5.4 2.3-8.5 0.8-3 1.9-6.8 2.6-8.3 0.8-1.6 2.5-3.9 4.1-5.4 1.6-1.5 3.9-3.2 5.2-3.8 1.3-0.6 3.6-1.4 5.1-1.7 1.6-0.3 3.9-0.6 5.3-0.6 1.4 0 5.3 0.4 8.6 0.9 3.3 0.4 7.5 0.7 9.2 0.6 2.2-0.2 4.1-0.8 6-1.8 1.6-0.9 3.6-2.2 4.4-3 0.8-0.8 1.5-1.8 1.5-2.3 0-0.4-1-1.6-2.1-2.7-1.5-1.5-2.1-2.5-2.1-3.6-0.1-0.9 0.2-2.4 0.5-3.4 0.4-1.1 0.9-2.1 1.1-2.4 0.3-0.4 1-0.1 1.8 0.8 0.8 0.7 1.9 2.3 2.4 3.4 0.6 1.4 0.8 2.9 0.7 4.2l-0.3 2.2c2.5-2.9 3.6-4.9 4.1-6.4 0.6-1.8 0.8-3.8 0.6-6.1-0.1-2.4-0.6-4.1-1.6-5.9-1.1-2-2-2.8-4.2-3.8-1.5-0.8-3.3-1.9-3.9-2.5-0.6-0.7-1.6-2.1-2.2-3.1-0.7-1-1.2-2-1.2-2.3 0-0.2 1.1-0.4 2.3-0.3 1.2 0 3.1 0.2 4.2 0.5 1.4 0.3 2.2 1 2.8 2.1 0.4 0.9 0.8 1.9 0.8 2.4 0 0.4 0.3 0.9 0.8 1 0.4 0.2 1.7-0.6 2.9-1.7 1.3-1.2 2.1-1.7 2.1-1.2 0 0.5-0.3 1.9-0.6 3.2-0.4 2-0.3 2.9 0.7 5.8 0.8 2.5 1.2 4.7 1.2 7.9 0 4.1-0.2 4.9-1.9 8.2-1 2-3.3 5.2-5 7.1-2 2.2-4.5 4.2-6.5 5.2-1.8 1-3.3 2-3.5 2.3-0.1 0.3 0.9 0.6 2.5 0.8 1.5 0.2 4.3 0.1 6.2-0.2 1.9-0.3 4.5-0.9 5.8-1.5 1.3-0.6 3.5-2.1 5-3.4 1.4-1.3 3.4-3.7 4.6-5.4 1.1-1.6 2.7-4.9 3.5-7.2 1.4-4.2 1.4-4.3 0.5-6.1-0.5-1-0.9-3-0.9-4.4 0-1.6 0.4-3.2 1.2-4.5 0.9-1.6 1.3-1.9 1.7-1.3 0.4 0.3 1 1.4 1.5 2.4 0.4 0.9 0.8 2.7 0.8 3.8 0 1.2 0.2 2.1 0.4 2.1 0.2 0 1.2-0.4 2.1-1 1-0.6 2-1.6 2.2-2.3 0.3-0.6 1.1-1.7 1.7-2.4 1-0.9 2.2-1.3 4.8-1.6 2.3-0.2 3.6-0.1 3.6 0.2 0 0.3-0.8 1.9-1.7 3.6-1.5 2.5-2.1 3.2-4.2 4.1-1.4 0.6-2.8 1-3.1 1-0.3 0-1.4 0.5-2.5 1-1.1 0.6-2.2 1.6-2.6 2.5-0.3 0.9-1 2.7-1.4 4.2-0.5 1.4-0.9 2.8-0.9 3 0 0.2 0.6 0.4 1.4 0.4 0.7 0 2.3-0.5 3.5-1.1 1.3-0.6 3.9-2.3 6-3.6 2-1.4 5.2-3.3 7.1-4.3 1.9-1 5.4-2.3 7.9-2.9l4.5-1.1c0.6-4.1 1.3-5.7 2-6.4 0.6-0.7 2-1.5 3-1.8 1.4-0.4 1.9-0.4 2.2 0.1 0.2 0.4 0.4 1.8 0.4 3 0 1.8-0.3 2.7-1.6 4.1l-1.6 1.9c2.3 0.4 4.6 1.1 6.6 1.7 2.1 0.6 4.7 1.8 6 2.6 1.2 0.8 3.2 2.4 4.3 3.5 1.2 1.1 2.2 1.8 2.4 1.7 0.1-0.2-0.2-1.9-0.5-4-0.4-2-1.2-5.7-1.9-8.2-0.6-2.5-2-7.4-3.2-11-1.1-3.5-2.2-6.4-2.4-6.5-0.3 0-0.9 0.5-1.5 1.2-0.6 0.6-2.1 1.6-3.4 2.3-1.3 0.6-3.6 1.4-5 1.8-1.9 0.4-5.9 0.4-13.5 0.1-8.6-0.4-11.4-0.7-13.7-1.5-1.6-0.6-5.5-2.7-8.7-4.6-3.2-2-7-4.2-8.4-4.9-1.5-0.6-4.5-1.6-6.7-2-2.3-0.4-5.4-0.8-6.9-0.7-1.5 0-3.8 0.2-5.1 0.5-1.3 0.2-3.6 1-5 1.8zm-60.8 16.1l-2 3.9v15.9c4.6 11.5 6.1 15.5 6.3 16.3 0.2 0.8 0.5 1.5 0.7 1.5 0.2 0 1.9-4.3 3.8-9.4 2.9-8.2 3.3-10 3.6-14.2 0.1-3.3 0-5.8-0.6-8.3-0.5-2-1.8-5.5-2.9-7.9-1.2-2.4-2.5-4.9-2.9-5.5-0.7-1-0.8-0.9-2.4 1.4-0.9 1.3-2.6 4.1-3.6 6.3zm-125.9 17.4c-1.4 0.7-4 2.8-5.8 4.6-1.8 1.7-3.9 4.4-4.8 6l-1.5 3c0 18.8 0.3 26.4 0.7 29 0.3 2.7 0.8 5.5 0.9 6.3l0.2 1.4c3.5-2.1 5.7-3.3 7.2-4 1.4-0.7 4-1.5 5.8-1.8 2.2-0.4 4.1-0.4 6.5-0.1 2.5 0.4 5.9 1.8 12.2 4.8 4.8 2.4 9.6 4.4 10.8 4.6 1.1 0.2 2.2 0.2 2.4-0.1 0.2-0.3 0.1-1.9-0.1-3.6-0.3-1.8-0.4-3.3-0.2-3.4 0.1 0 1.1 0.4 2.2 1.1 1.1 0.6 2 1.1 2.1 1.2 0 0 0.4 2 0.7 4.5 0.4 3.2 1.1 5.4 2.3 7.6 0.9 1.7 2.6 3.9 3.8 4.9 1.1 1 2.9 2.2 3.9 2.7 1.2 0.5 3.2 0.9 5.3 0.9 2.9 0 3.9-0.3 6.6-1.8 1.7-0.9 4.2-2.6 5.5-3.7 1.3-1.1 4.2-3.3 6.3-5l4-3.1c-4.9 0.7-8.5 0.9-11.1 0.9-3.8 0-5.8-0.4-10-1.7-2.9-0.9-7.2-2.6-9.5-3.8-3.2-1.6-5.9-3.6-11.6-8.8-6.9-6.3-7.6-6.7-11.3-7.9-2.2-0.7-5.7-1.6-7.9-2-2.2-0.5-7.1-1.2-10.8-1.7-5-0.5-7.2-1-8.2-1.8-0.7-0.5-1.8-2-2.5-3.3-0.6-1.3-1.2-2.5-1.2-2.7 0-0.2 1-0.5 2.2-0.7 1.7-0.3 2.8-0.1 4.3 0.6 1.1 0.6 2.5 1.7 3 2.6 0.9 1.5 1.2 1.6 5.9 2 2.7 0.3 7 0.8 9.6 1.2 2.7 0.4 4.9 0.7 4.9 0.6 0.1 0-0.5-1.4-1.4-3-0.8-1.6-2-3.3-2.5-3.8-0.5-0.5-2.6-1.3-4.6-1.7-2.9-0.6-4.1-1.2-5.5-2.5-1.1-1.1-2-2.7-2.4-4.4l-0.7-2.7c2.1-0.2 3.6-0.1 4.7 0.3 1.2 0.3 2.5 1.2 3.3 2.3 0.7 0.9 1.3 2.1 1.4 2.7 0.2 0.8 0.7 1.1 1.9 1.2 1.6 0.1 1.7 0 1.7-1.6 0.1-0.9 0.5-2.9 1-4.5 0.5-1.5 1.1-2.8 1.3-2.8 0.2 0.1 1.1 1 2 2 0.8 1.1 1.7 2.7 1.8 3.5 0.2 0.8-0.2 2.4-0.8 3.8-0.8 1.9-0.9 2.6-0.4 3.6 0.3 0.6 1.8 2.8 3.3 4.8 1.8 2.5 2.8 3.4 3 2.9 0.2-0.4 0.4-1.4 0.4-2.3 0-0.9 0.6-2.7 1.3-4 0.6-1.3 1.9-3.6 2.7-5.1 1.3-2.3 1.7-2.7 2.2-2.2 0.3 0.4 0.8 1.3 1.1 2.1l0.6 1.3c6.4-1.5 9-1.9 10.1-1.9 1 0 2.1-0.2 2.5-0.4 0.5-0.3-0.2-1.2-2.4-3.3-2.3-2.2-3.9-3.1-6.2-3.9-1.7-0.5-4.1-1.4-5.3-2-1.1-0.6-4.1-2.4-6.6-4.1-2.4-1.7-5.4-3.5-6.6-4.1-1.1-0.6-3.5-1.5-5.2-2-1.8-0.4-4.7-0.8-6.6-0.8-1.9 0.1-4.7 0.4-6.3 0.9-1.6 0.4-4.1 1.4-5.6 2.2zm234.6 2.2c-3.2 2.1-7.1 4.5-8.7 5.3-1.6 0.8-4.6 2-6.8 2.7-3.3 1-4.3 1.7-6.2 3.8-1.2 1.3-2.3 2.6-2.3 2.9 0 0.2 1.5 0.5 3.3 0.8 1.8 0.2 4.8 0.7 6.6 1l3.3 0.7c0.8-2.7 1.3-3.6 1.6-3.7 0.3-0.2 1 0.6 1.5 1.7 0.5 1.1 1.8 3.6 2.9 5.5 1.1 2 1.9 4.3 1.9 5.1 0 0.8 0.3 1.8 0.5 2.2 0.4 0.6 1.2-0.3 3.7-4.1l3.2-4.9c-1.6-3.5-2.1-4.9-2.1-5.5 0-0.6 0.5-2 1-3.2 0.6-1.2 1.4-2.6 1.8-3.2 0.8-1 0.9-0.9 1.8 1.3 0.6 1.4 1.2 3.6 1.4 4.9 0.3 2.3 0.5 2.6 1.6 2.6 1.1 0 1.8-0.7 3.1-2.8 1.4-2.2 2.2-2.9 3.8-3.5 1.2-0.3 2.8-0.6 3.6-0.6h1.4c-1.1 3.9-1.7 5.5-2 6.1-0.3 0.5-1 1.4-1.5 1.9-0.5 0.5-2.6 1.3-4.7 1.8-2 0.4-4.1 1.1-4.7 1.5-0.6 0.3-1.8 2-2.8 3.7-0.9 1.6-1.6 3.1-1.6 3.2 0.1 0.1 3.3-0.2 7-0.8 3.8-0.6 7.9-1 9.1-1 2 0 2.5-0.3 4.6-2.5 2.3-2.4 2.5-2.6 5.6-2.7 1.8-0.1 3.1 0.1 3.1 0.4 0 0.3-0.4 1.4-0.9 2.5-0.6 1.1-1.7 2.6-2.6 3.4-0.8 0.7-2.4 1.5-3.6 1.7-1.1 0.2-4.2 0.6-6.8 0.9-2.6 0.3-6.3 0.9-8.2 1.3-1.9 0.4-5.4 1.2-7.9 1.9l-4.5 1.2c-9.4 9.1-13.1 12.5-14.2 13.4-1.2 0.9-3 2-4 2.5-1 0.6-3.7 1.6-6 2.4-2.4 0.8-6.3 1.9-8.7 2.4-3.2 0.6-5.6 0.8-8.2 0.6-2-0.2-4.5-0.5-5.6-0.6l-1.8-0.3c2 1.5 5.2 4 8.4 6.6 3.2 2.5 6.8 5.1 7.9 5.6 1.5 0.7 3.3 1 5.8 1 2.8 0 4.3-0.2 6.1-1.1 1.3-0.7 3.2-2.3 4.4-3.6 1.1-1.3 2.5-3.3 3-4.5 0.8-1.6 1-3.2 1-6.6v-4.5c4.1-1.9 5.4-2.3 5.6-2.1 0.1 0.1 0 0.7-0.2 1.2-0.3 0.5-0.6 1.7-0.8 2.7-0.1 1.1-0.1 2.2 0.1 2.6 0.3 0.6 0.9 0.6 3.3 0.1 1.5-0.4 6.5-2.6 11-4.9l8.2-4.2c9.4-0.2 10.5 0 14 1.4 2.1 0.9 5 2.3 6.3 3.2l2.4 1.7c1-5.8 1.6-10.5 1.9-14.1 0.3-3.7 0.4-10.1 0.4-14.3-0.2-7.4-0.3-7.9-1.9-11.1-1.1-2.4-2.8-4.6-5.3-6.9-1.9-1.9-4.9-4.1-6.5-4.9-1.6-0.7-4.3-1.6-6-1.9-1.8-0.4-4.6-0.6-6.4-0.6-1.7 0-4.2 0.4-5.5 0.8-1.3 0.4-5 2.4-8.2 4.5zm-153.4 19c-2.6 0.9-6.5 1.9-8.7 2.2-3.4 0.6-5.1 0.5-12.6-0.6-5.4-0.7-10-1.1-12.2-0.9-1.8 0.1-4.8 0.7-6.5 1.2-1.8 0.6-3.9 1.7-4.9 2.6-1.5 1.4-1.7 1.9-1.7 4.4 0 1.5 0.3 3.7 0.8 4.7 0.4 1.1 1.7 3.2 2.8 4.6 1 1.5 3.3 3.6 5.1 4.9 1.7 1.2 4.5 2.9 6.1 3.6 1.7 0.7 3.1 1.1 3.1 0.8 0-0.3-0.6-1.4-1.4-2.5-1.1-1.6-1.3-2.4-1.1-4.6 0.1-1.5 0.7-3.6 1.4-4.8l1.3-2.1c1.2 2.5 1.8 5.1 2.2 7.4 0.4 2.3 0.9 4.7 1 5.2 0.2 0.5 1.3 1.6 2.5 2.4 1.2 0.9 3.2 1.8 4.4 2.1 1.1 0.4 3.7 0.6 5.6 0.6 2 0 3.7-0.2 3.9-0.5 0.1-0.3-0.9-1.1-2.3-1.8-1.4-0.7-3-1.8-3.7-2.5-0.8-0.8-1.3-2.2-1.6-4.3-0.3-2.5-0.2-3 0.4-3 0.5 0 1.7 0.2 2.7 0.5 1 0.3 2.3 1 3 1.7 0.6 0.7 1.4 1.9 1.6 2.8 0.3 0.9 1.4 2.3 2.5 3.2 1.2 0.9 3.3 1.9 4.9 2.2 1.5 0.4 4.6 0.7 6.8 0.7 2.3 0 4.5-0.3 4.9-0.5 0.7-0.4 0.7-0.8-0.2-2.8-0.5-1.2-1.3-2.7-1.8-3.2-0.7-0.8-1.4-0.9-3.5-0.7-2.3 0.3-3 0.1-4.8-0.9-1.1-0.8-2.6-2.3-3.3-3.4-0.6-1.1-1.1-2.2-1.1-2.4-0.1-0.2 1.5-0.4 3.5-0.4 3.1 0 3.9 0.2 6.1 1.6 1.3 0.8 2.6 1.6 2.9 1.6 0.2 0 1.2 0.5 2.2 1.3 1.1 0.8 2.6 2.7 3.7 4.9l1.9 3.6c8.1 2.9 11.8 4.4 13.4 5.2 1.6 0.9 4.1 2.4 5.5 3.5 1.5 1 3.9 3.3 5.5 5.1l2.8 3.1c-0.6-7.4-1.1-11-1.5-12.8-0.4-1.9-1.8-6-3.2-9.3-1.3-3.3-2.9-8.5-3.6-11.6-0.7-3.2-1.8-6.6-2.3-7.7-0.5-1.1-1.9-2.8-3-3.8-1.2-1-3.4-2.4-5-3.1-2.2-1-4-1.4-7.6-1.5-4-0.2-5.3 0-8.5 1.1-2 0.7-5.8 2-8.4 2.9zm71.7-0.6c-1.3 0.9-3 2.7-3.8 3.9-1 1.6-1.8 4.1-2.7 8.4-0.7 3.3-2.3 8.8-3.6 12.1-1.3 3.4-2.8 7.8-3.4 9.8-0.5 2-1.2 5.6-1.3 7.9l-0.4 4.3c9.3-8.9 11.5-10.6 14.7-12.1 2.3-1.2 6.2-2.7 8.6-3.5l4.4-1.3c2-5 3.1-6.9 3.7-7.6 0.7-0.7 2.2-1.5 3.3-1.8 1.2-0.3 2.9-1.2 3.8-2.1 1.6-1.4 2.1-1.5 5.4-1.5h3.7c-1.8 3.3-2.9 4.8-3.6 5.5-0.9 0.8-2.1 1.2-4.8 1.4-2.6 0.2-3.9 0.5-4.7 1.3-0.6 0.6-1.4 1.9-1.8 3-0.3 1.1-0.4 2.2-0.2 2.4 0.3 0.2 3.1 0.4 6.4 0.4 5.4 0 6.1-0.1 9-1.6 2.7-1.3 3.3-1.9 4-3.7 0.4-1.2 1.1-2.6 1.5-3.1 0.5-0.6 1.4-1.3 2.1-1.6 0.8-0.4 2.1-0.8 2.9-0.9l1.6-0.2c-0.1 4.8-0.5 6.3-1.2 7.1-0.5 0.8-2 1.9-3.3 2.5-1.3 0.7-2.6 1.3-2.9 1.4-0.3 0.2-0.1 0.5 0.3 0.9 0.4 0.3 2.4 0.5 4.4 0.5 2 0 4.3-0.3 5.4-0.8 1-0.4 2.7-1.6 3.8-2.7 1.9-1.9 2.1-2.3 2.3-5.7 0.2-2.1 0.8-4.8 1.3-6.1l1.1-2.4c1.8 2.9 2.5 4.5 2.8 5.6 0.5 1.6 0.3 2.3-1.1 5.1-0.8 1.8-1.4 3.5-1.3 3.7 0.2 0.2 2.1-0.5 4.3-1.7 2.2-1.2 5.6-3.5 7.5-5.3 2.2-2.1 3.9-4.2 4.9-6.3 1.1-2.3 1.5-4 1.5-6 0-2.5-0.1-2.9-2-4.3-1.1-0.9-3-2-4.3-2.5-1.3-0.4-4.4-0.9-6.9-1.1-3-0.2-6.3 0-10.2 0.6-4.1 0.7-7.5 0.9-11.1 0.7-4.5-0.2-6.5-0.6-13.7-3-7.6-2.5-9-2.8-14-3-4.4-0.2-6 0-7.8 0.7-1.2 0.5-3.3 1.7-4.6 2.7zm-158.8 32.5c-1.9 1.2-3.3 2.4-3.3 2.5 0 0.2 0.7 3 1.6 6.4 0.8 3.3 2.6 9 4 12.6 1.3 3.7 2.9 7.6 3.4 8.6 0.6 1.3 1.7 2.3 2.7 2.8 1 0.4 4.1 2.3 7 4.2 4.7 3.1 5.6 3.5 8.7 3.8 1.9 0.2 4.4 0.2 5.5 0 1.2-0.1 2.4-0.6 2.8-1 0.5-0.5 0.2-1-1.8-2.5l-2.5-1.8c-0.3-6.2-0.1-7.2 0.4-7.2 0.3 0 1.6 0.6 2.7 1.3 1.2 0.7 2.4 1.9 2.8 2.8 0.3 0.8 0.7 2.1 0.9 2.8 0.2 0.7 0.8 1.8 1.3 2.3 0.4 0.5 2.4 1.8 4.3 2.9 3.2 1.8 3.6 1.9 8.1 1.9 3.5 0 5.3-0.3 6.6-1 1.5-0.7 1.7-1 1.1-1.4-0.5-0.2-1.4-0.5-2.1-0.5-0.8 0-2.2-0.2-3.3-0.5-1.5-0.4-2.5-1.2-3.8-3-1-1.4-1.9-2.8-1.9-3.2 0-0.5 1.1-0.6 3.9-0.5 3.7 0.1 4.1 0.2 5.7 1.8 1.3 1.3 2.2 1.7 3.6 1.7 1.1 0 2.6-0.4 3.7-1.2 1.3-0.8 2.2-2.1 3-4.1 0.6-1.6 1.3-4.1 1.5-5.7l0.5-2.7c-3.3 0-5.7 0.4-7.4 0.8-1.7 0.4-4.4 1.3-5.8 1.8-1.5 0.6-4.2 1.4-6.1 1.9-1.8 0.4-4.5 0.8-5.9 0.8-1.9 0-3.4-0.5-6.5-2.1l-3.9-2.2c-8.3 1-9.7 1-11.9 0.3-1.4-0.4-3.2-1.4-4-2.2-0.7-0.8-1.8-2.2-2.4-3-0.5-0.8-0.8-1.6-0.5-1.8 0.2-0.2 1.8-0.5 3.5-0.7 3.1-0.2 3.1-0.2 5.2 2 1.8 1.9 2.5 2.3 4.2 2.3 1-0.1 2.3-0.2 2.6-0.4 0.6-0.4 0.6-0.9 0-3.5-0.3-1.6-0.5-3.2-0.2-3.4 0.2-0.2 1.4-0.1 2.6 0.4 2 0.7 2.4 1.2 4.1 4.5 1.3 2.8 2.3 3.9 3.6 4.6 1.4 0.8 2.8 0.9 5.6 0.8 2.3-0.1 4.6-0.6 6.2-1.3l2.5-1.2c-6.2-5.9-8.2-8.4-9.4-10.8-1.5-2.6-2.3-3.6-3.3-3.9-0.7-0.1-3-0.7-5-1.3-2-0.6-5.4-1.9-7.6-2.9-2.2-0.9-4.2-1.8-4.5-1.8-0.3 0-1.5 1.1-2.6 2.4-1.2 1.4-2.9 3.3-3.7 4.2-1.4 1.6-2.1 1.8-5 2.1-1.9 0.2-3.5 0.3-3.6 0.3 0-0.1 0.5-1.4 1.1-2.9 0.7-1.4 1.8-3.1 2.5-3.7 0.7-0.6 2.2-1.3 3.3-1.5 1-0.2 2.7-1 3.5-1.8 0.9-0.8 1.5-1.6 1.2-1.7-0.2-0.2-1.5-0.6-2.9-1-1.4-0.3-3.8-0.6-5.3-0.5-1.5 0-3.9 0.4-5.4 1-1.4 0.6-4.1 2.1-5.9 3.3zm253.8-2.9c-0.2 0.2 0.4 1 1.3 1.8 1 0.8 2.7 1.6 3.9 1.8 1.1 0.3 2.7 0.9 3.4 1.5 0.7 0.6 1.7 2.1 2.2 3.2 0.5 1.2 1 2.5 1 2.9 0 0.7-0.5 0.8-3.3 0.4-1.8-0.2-3.8-0.8-4.5-1.2-0.7-0.4-1.9-1.8-2.7-3-0.8-1.2-2.3-2.8-3.3-3.5l-1.8-1.3c-7.3 3.5-11.3 5.1-13.6 5.7l-4.2 1.1c-3.2 5.3-5.3 8.1-6.8 9.5-1.6 1.5-3.3 3-3.8 3.3-0.7 0.3-0.9 0.8-0.7 1.1 0.2 0.3 2 1.1 3.9 1.7 2 0.6 4.6 1 5.7 1 1.2 0 3.1-0.4 4.2-1 1.2-0.5 2.4-1.2 2.7-1.7 0.3-0.4 1-1.8 1.5-3.2 0.4-1.4 1.4-2.9 2-3.3 0.7-0.5 2.1-1 3.2-1.2 1.2-0.3 2-0.2 2 0.1 0 0.3-0.4 1.7-0.8 3.2-0.5 1.4-0.8 2.8-0.8 3 0 0.3 1.1 0.6 2.5 0.7 1.4 0.2 2.9 0.2 3.4 0 0.5-0.1 1.1-0.7 1.2-1.3 0.1-0.6 1.1-1.4 2.1-1.9 1-0.4 3.2-0.8 4.8-0.8h2.9c-2.3 4.2-3.7 5.9-4.5 6.4-0.9 0.5-2.9 1.2-4.4 1.5-1.9 0.4-3.9 0.4-6.7 0-3.8-0.5-4.1-0.5-6 0.7-1 0.7-2.7 1.6-3.7 2-1.2 0.5-3.6 0.8-6.4 0.8-3.9 0-5.4-0.3-11.6-2.5-3.9-1.3-8.1-2.6-9.3-2.7-1.3-0.2-2.3-0.2-2.3 0 0 0.3 0.6 2.3 1.3 4.7 0.7 2.3 1.6 5 2.1 5.9 0.5 1 1.4 2.1 2 2.5 0.7 0.4 2 0.9 3.1 1.1 1.7 0.3 1.9 0.2 3.7-1.9 1.9-2.3 2-2.3 5.1-2.3 1.8 0 3.3 0.1 3.5 0.4 0.2 0.2-0.2 1.3-0.9 2.6-0.6 1.2-1.8 2.6-2.5 3.2-0.7 0.5-2.4 1.1-3.9 1.3-1.4 0.2-2.6 0.6-2.7 0.8-0.1 0.2 0.6 0.7 1.6 1.2 1.2 0.5 3.6 0.8 6.5 0.8 3.8 0 5-0.2 7.2-1.3 1.5-0.7 3.4-2.1 4.2-3 0.9-0.9 2-2.7 2.4-4.1 0.6-1.7 1.4-2.9 2.9-4 1.3-0.9 2.5-1.4 3-1.2 0.7 0.3 1 0.9 1 2.3 0 1.1-0.2 2.7-0.5 3.6-0.3 0.9-1.5 2.2-2.7 3-1.1 0.8-2.1 1.7-2.1 2 0 0.3 0.9 0.8 2 1.1 1.1 0.4 4 0.5 6.5 0.4 4.4-0.1 4.7-0.2 7.7-2.4 1.7-1.2 4.6-3.2 6.6-4.3 3.2-2 3.7-2.5 5.1-5.5 0.8-1.8 2.5-6.1 3.7-9.6 1.2-3.5 2.8-8.6 3.5-11.4 0.7-2.8 1.1-5.2 1-5.4-0.1-0.2-2-1.5-4.1-2.8-2.1-1.3-5-2.7-6.4-3.2-1.5-0.4-4-0.8-5.6-0.7-1.6 0-3.7 0.3-4.7 0.5-1 0.3-2.1 0.7-2.3 0.9zm-167.7 10.8c-1.5 0.6-4 2-5.6 3.1-1.6 1.1-3.9 3-5.1 4.4-1.7 1.9-2.5 3.4-3.3 6.3-0.6 2.1-1.8 6.1-2.6 8.8-1.1 3.7-2.1 5.8-3.6 7.7-1.2 1.5-3.2 3.4-4.4 4.3-1.3 0.9-3.2 2.1-4.2 2.6-1.5 0.9-3 1-8.2 1-6.1 0-6.4 0-9.6-1.7l-3.3-1.7c-4.5 1.6-7.7 2.3-10.1 2.5l-4.4 0.3c-8.3-4.2-10.8-5.2-10.8-4.9 0 0.3 0.9 2 2 3.8 1 1.8 3.5 5.7 5.5 8.6 1.9 2.9 5.2 7.3 7.1 9.8 2 2.5 5.8 6.7 8.4 9.5 2.6 2.7 7.4 7.2 10.8 10 3.3 2.8 9 7.1 12.6 9.6 3.7 2.4 8.5 5.3 10.8 6.4 2.4 1.1 6.2 2.5 8.5 3.1 2.3 0.6 6.3 1.3 8.9 1.4 3.1 0.2 6.5 0 9.5-0.5 2.6-0.4 6.5-1.5 8.7-2.3 2.2-0.9 5.3-2.4 6.9-3.5 1.6-1 4.2-3 5.8-4.5 1.6-1.4 4.1-4.4 5.6-6.5 1.5-2.2 3.4-5.3 4.1-7.1 0.8-1.7 2.1-5.4 2.8-8.2 1.4-4.9 1.4-5.4 1.4-19.8v-14.8c-2.7-7.8-4.5-11.8-5.8-13.8-1.2-2-3.6-5-5.3-6.7-1.7-1.7-4.5-3.9-6.3-4.9-1.7-1.1-5-2.5-7.3-3.2-3.1-1-5.4-1.3-8.5-1.3-2.3 0.1-5.1 0.3-6.3 0.6-1.2 0.3-3.3 1-4.7 1.6zm74 2.7c-1.9 1.3-4.6 3.4-6 4.7-1.7 1.5-3.4 3.9-4.9 6.6-1.2 2.3-2.9 6.3-3.8 8.9-1.1 3.4-1.7 6.7-2.2 11.4-0.3 3.7-0.5 9.7-0.3 13.7 0.2 4 0.8 9.1 1.4 11.7 0.5 2.4 1.6 6.1 2.4 8.2 0.7 2 2.3 5.3 3.5 7.4 1.2 2 4.1 5.6 6.5 8 2.6 2.6 5.6 5 7.7 6.1 1.8 1.1 5.2 2.6 7.3 3.4 3.7 1.3 4.7 1.5 13.2 1.6 8.9 0.2 9.4 0.2 13.7-1.2 2.5-0.7 6-2.2 7.9-3.1 1.9-1 6.3-3.7 9.8-6 3.5-2.3 8.3-5.9 10.8-7.9 2.5-1.9 7.3-6.4 10.8-9.9 3.5-3.5 8.4-8.9 10.8-11.9 2.4-3.1 5.7-7.6 7.4-10.1 1.6-2.4 3.8-6 4.9-7.8 1.1-1.8 1.9-3.5 1.9-3.8 0-0.3-1.2 0.2-2.7 1-1.6 0.9-4.2 2.1-6 2.7-1.7 0.6-4.2 1.1-5.5 1.1-1.3 0-4.4-0.5-6.9-1.1l-4.4-1.1c-6.6 2.8-7.4 2.9-12.9 2.9-5.7 0-6.3-0.1-9-1.5-1.6-0.8-4.1-2.6-5.5-4-1.4-1.4-3.1-3.7-4-5.6-0.8-1.7-2-5.4-2.6-8.2-0.7-2.7-1.9-6.4-2.8-8.1-1-1.7-3.1-4.4-4.7-6-1.7-1.5-4.6-3.5-6.4-4.3-1.8-0.9-4.8-1.8-6.7-2.1-1.9-0.4-5.2-0.6-7.4-0.6-2.7 0-5.2 0.4-7.9 1.3-2.2 0.7-5.5 2.4-7.4 3.6zm-23.7-127.6c0.1-0.1 0.8 0.5 1.4 1.1 0.6 0.7 1.3 1.8 1.5 2.6 0.2 0.7 0.1 2.2-0.2 3.3-0.3 1.1-1 2.2-1.5 2.5-0.7 0.4-1.2 0.2-2.1-0.7-0.8-0.8-1.2-1.8-1.2-3.1 0-1.1 0.4-2.9 0.9-3.9 0.4-1 1-1.8 1.2-1.8z"/><path class="b" d="m324.8 1.1c-0.2 0.4-0.4 1-0.5 1.3-0.1 0.4-0.2 0.7-0.3 0.8 0 0.1-0.2 0.6-0.4 1.2-0.2 0.6-0.5 1.2-0.7 1.4-0.2 0.2-0.7 0.5-1 0.6-0.4 0.2-1 0.6-1.5 0.9-0.4 0.3-1.1 0.9-1.6 1.3-0.4 0.5-1.1 1.4-1.4 2.1q-0.7 1.3-0.8 2.3c-0.1 0.6-0.2 1.8-0.1 2.7 0 1.3 0 1.8-0.2 2-0.2 0.3-0.2 0.3-1.3 0-0.6-0.1-1.2-0.4-1.3-0.5-0.2-0.1-0.8-0.4-1.5-0.7-0.8-0.3-2.1-0.8-3.1-1.1-0.9-0.3-2.4-0.7-3.2-0.9-0.9-0.2-2.1-0.3-3.7-0.3-2 0-2.4 0.1-3.1 0.4-0.5 0.1-1.4 0.6-2.1 1-0.7 0.4-1.6 0.8-1.9 1-0.4 0.1-0.9 0.4-1.1 0.5-0.3 0.2-0.7 0.4-0.9 0.5-0.2 0-0.9 0.3-1.5 0.6-0.6 0.3-1.2 0.6-1.3 0.6-0.1-0.1-0.4 0.1-0.7 0.3-0.3 0.3-0.9 0.5-1.4 0.6-0.4 0.1-1 0.3-1.3 0.5-0.3 0.2-1.2 0.6-1.9 0.8-0.8 0.3-1.9 0.6-2.6 0.8-0.6 0.2-1.4 0.5-1.7 0.6-0.3 0.2-1.8 0.6-3.3 0.9-1.5 0.3-3.7 0.7-4.9 0.9l-2.1 0.2c-0.1 1.1 0 1.2 0.6 1.7 0.4 0.3 1 0.8 1.5 1 0.4 0.3 1.3 0.8 2 1.1 0.6 0.3 1.8 0.7 2.5 0.8 0.8 0.2 1.6 0.4 2 0.6 0.3 0.1 0.8 0.4 1 0.7 0.2 0.2 0.4 0.6 0.4 0.8 0 0.2 0 0.4 0.1 0.5 0 0.1 0.6 0.5 1.3 0.8 0.6 0.3 1.5 0.8 2 0.9 0.4 0.2 0.9 0.4 1 0.5 0.1 0.1 0.6 0.4 1.1 0.6 0.8 0.2 0.9 0.3 1 0.8 0 0.3 0.2 0.8 0.5 1 0.2 0.3 0.7 0.7 1.2 1 0.4 0.2 1.5 0.8 2.5 1.2 1 0.3 2.1 0.8 2.5 1 0.4 0.2 0.8 0.5 0.9 0.7 0 0.1 0.1 0.4 0.2 0.5 0.1 0.2 0.9 0.6 1.8 0.9 0.8 0.3 2.3 0.7 3.3 0.8 1.2 0.3 2 0.5 2.7 0.8 0.5 0.3 1.1 0.7 1.3 0.8 0.2 0.2 1 0.5 1.7 0.8 0.8 0.2 1.8 0.5 2.3 0.6 0.6 0.1 2.4 0.3 4.2 0.4l3.2 0.1c0.7 0.7 1.1 1.3 1.3 1.7 0.2 0.5 0.5 1.1 0.7 1.4 0.2 0.4 0.3 0.8 0.3 1.3 0 0.3-0.1 1.1-0.3 1.6-0.2 0.6-0.5 1.7-0.7 2.6-0.2 0.9-0.6 2.3-0.8 3.1-0.3 0.8-0.6 2-0.8 2.5-0.1 0.6-0.4 1.8-0.5 2.6-0.1 0.8-0.4 1.8-0.6 2.2-0.1 0.4-0.4 1.3-0.6 2.1-0.1 0.7-0.2 1.6-0.2 1.9 0 0.3 0.2 0.7 0.4 0.9 0.2 0.3 0.6 0.4 1.2 0.5 0.5 0 1.3 0 1.7-0.1 0.4-0.1 1-0.3 1.2-0.5 0.3-0.2 0.6-0.3 0.7-0.3 0.1 0 0.4 0.2 0.6 0.4 0.2 0.3 0.3 0.7 0.3 1 0 0.3 0.1 1.2 0.3 1.9 0.2 0.8 0.5 1.8 0.6 2.3 0.2 0.6 0.7 1.4 1.1 2 0.4 0.5 1 1.1 1.3 1.3 0.4 0.2 0.7 0.4 0.7 0.6 0 0.3 0.1 0.4 2.4 0.4 2.2 0 2.3-0.1 2.3-0.4 0-0.2 0.3-0.5 0.8-0.8 0.5-0.3 1.1-0.9 1.5-1.4 0.3-0.5 0.8-1.3 1-1.7 0.1-0.5 0.4-1.9 0.6-3.2 0.1-1.2 0.3-2.3 0.3-2.4 0.1-0.1 0.3-0.1 0.5-0.1 0.2 0.1 0.7 0.3 1.2 0.5 0.4 0.2 1.2 0.4 1.7 0.5 0.5 0 1.3 0 1.7-0.1 0.4-0.1 0.7-0.3 0.8-0.5 0.1-0.3 0.2-0.8 0.1-1.5 0-0.7-0.2-1.5-0.5-2.1-0.2-0.5-0.5-1.4-0.6-2-0.1-0.6-0.3-1.6-0.5-2.4-0.2-0.7-0.6-2-0.8-2.8-0.3-0.9-0.6-2.3-0.8-3.1-0.1-0.9-0.5-2.4-0.7-3.3-0.3-0.9-0.5-2-0.5-2.3 0-0.4 0.1-0.9 0.3-1.2 0.2-0.3 0.5-1.1 0.8-1.7q0.6-1.1 1-1.3c0.3-0.1 1.1-0.2 2.3-0.2 1 0 2.6-0.1 3.6-0.2 0.9-0.1 2.2-0.3 2.8-0.5 0.7-0.2 1.5-0.5 1.9-0.6 0.3-0.1 0.8-0.3 1.1-0.6 0.2-0.2 0.8-0.6 1.3-0.8 0.5-0.2 1.7-0.5 2.7-0.7 0.9-0.1 2.4-0.5 3.1-0.8 1.3-0.5 1.5-0.6 2-1.2 0.4-0.7 0.6-0.8 2.8-1.7 1.4-0.5 2.8-1.2 3.2-1.5 0.5-0.2 1-0.7 1.2-0.9q0.4-0.4 0.4-1c0-0.5 0.1-0.6 0.6-0.7 0.4-0.1 1-0.4 1.4-0.6 0.4-0.3 1-0.5 1.4-0.6 0.3-0.2 0.8-0.4 1-0.5 0.2-0.1 0.7-0.4 1.2-0.7 0.6-0.3 0.8-0.5 0.9-0.9 0.1-0.4 0.3-0.8 0.5-1 0.2-0.2 0.6-0.5 1-0.6 0.3-0.2 1.2-0.4 1.9-0.6 0.9-0.1 1.8-0.5 3.3-1.2 1-0.5 2.3-1.3 2.7-1.7 0.7-0.6 0.8-0.7 0.7-1.2v-0.5c-3.6-0.4-5.6-0.7-6.9-1-1.2-0.3-2.6-0.7-3.1-0.8-0.5-0.2-1.4-0.5-2-0.7-0.6-0.2-1.4-0.4-1.7-0.6-0.4-0.1-0.9-0.3-1.2-0.4-0.3-0.1-0.9-0.3-1.4-0.6-0.4-0.2-1.2-0.5-1.6-0.6-0.5-0.1-1.1-0.3-1.2-0.5-0.2-0.1-0.7-0.4-1.1-0.5-0.4-0.2-1.1-0.5-1.6-0.7-0.5-0.2-1.5-0.7-2.4-1.1-0.8-0.5-2.2-1.2-3.1-1.6-0.8-0.5-2-0.9-2.4-1q-0.9-0.2-2.8-0.1c-1.1 0-2.6 0.2-3.5 0.4-0.8 0.2-2.3 0.6-3.2 1-1 0.3-2.1 0.7-2.5 0.8-0.4 0.2-1 0.4-1.3 0.6-0.3 0.2-1 0.5-1.5 0.7-0.8 0.2-1 0.2-1.3 0-0.3-0.2-0.4-0.3-0.3-1.9 0.1-1 0.1-2.1 0-2.6-0.1-0.5-0.4-1.4-0.7-2.1-0.4-0.7-1-1.6-1.5-2.2-0.5-0.6-1.4-1.3-1.8-1.6-0.5-0.3-1.2-0.8-1.6-0.9-0.6-0.3-0.8-0.5-1.3-1.4-0.3-0.5-0.7-1.5-0.8-2.1-0.3-0.9-0.5-1.3-1-1.8-0.4-0.4-0.7-0.7-0.8-0.7 0 0-0.2 0.3-0.3 0.7z"/><path class="c" d="m60.7 486.6q2.2 0.7 2.4 3.5-10.2 10-23.7 10-7.1 0-13.6-2.3-6.3-2.4-11.3-7-4.9-4.6-8-12.1-2.9-7.6-2.9-17.2 0-9.4 3.3-16.9 3.3-7.7 8.7-12.3 5.5-4.7 11.8-7 6.3-2.3 13-2.3 14.6 0 23.1 4.7 0.5 7.4-3.2 17.1-2.6 0.4-4.6-0.6l-1.1-13.4q-5.6-2.4-13.5-2.3-10.8 0-18.1 9.6-7.3 9.5-7.3 23.4 0 15.1 6.4 24.1 6.4 9 18.4 9 10.9 0 20.2-8zm-2.7 0q2.2 0.7 2.4 3.5-10.2 10-23.8 10-7.1 0-13.5-2.3-6.4-2.4-11.4-7-4.9-4.6-7.9-12.1-2.9-7.6-2.9-17.2 0-9.4 3.2-16.9 3.3-7.7 8.8-12.3 5.5-4.7 11.7-7 6.4-2.3 13.1-2.3 14.5 0 23.1 4.7 0.4 7.4-3.2 17.1-2.6 0.4-4.6-0.6l-1.2-13.4q-5.6-2.4-13.4-2.3-10.8 0-18.1 9.6-7.3 9.5-7.3 23.4 0 15.1 6.3 24.1 6.5 9 18.5 9 10.8 0 20.2-8zm63.7-40.6v47q1.4 1 7.3 2.1 0.3 1.9-0.5 3.6-3.9 0.8-8.6 0.8-3.3 0-5.8-0.7l-1.8-7.7h-0.5q-5.2 4.7-9.8 6.7-4.5 1.9-9.9 1.9-14.1 0-14.1-15.7v-31.8l-7.6-0.9q-0.3-2.1 0.5-3.6 6.4-1 13.6-2.8 1.8 0.1 3.9 1.1v36.5q0 5.8 2.4 7.9 2.4 2.1 7.4 2 3.3 0 6.9-1.9 3.7-2 6.2-4.8v-33.5l-7.6-0.9q-0.4-2.1 0.5-3.6 6.3-1 13.5-2.8 1.8 0.1 4 1.1zm-2.8 0v47q1.5 1 7.3 2.1 0.3 1.9-0.5 3.6-3.9 0.8-8.5 0.8-3.4 0-5.9-0.7l-1.7-7.7h-0.6q-5.2 4.7-9.8 6.7-4.4 1.9-9.9 1.9-14 0-14-15.7v-31.8l-7.6-0.9q-0.3-2.1 0.5-3.6 6.3-1 13.5-2.8 1.8 0.1 4 1.1v36.5q0 5.8 2.4 7.9 2.4 2.1 7.4 2 3.2 0 6.9-1.9 3.6-2 6.1-4.8v-33.5l-7.6-0.9q-0.3-2.1 0.5-3.6 6.4-1 13.6-2.8 1.7 0.1 3.9 1.1zm34.3-25.6v72.4l8.1 2.1q0.3 2-0.5 3.6-9.4-0.5-12.8-0.5-3 0-12.7 0.5-0.3-2 0.2-3.6 5.9-1.5 7.3-2.1v-66.3l-8.6-0.8q-0.3-2.1 0.5-3.7 8.7-1.2 14.6-2.8 1.8 0.1 3.9 1.2zm-2.7 0v72.4l8 2.1q0.3 2-0.5 3.6-9.4-0.5-12.7-0.5-3 0-12.7 0.5-0.3-2 0.2-3.6 5.8-1.5 7.3-2.1v-66.3l-8.7-0.8q-0.3-2.1 0.6-3.7 8.6-1.2 14.5-2.8 1.8 0.1 4 1.2zm36.2 79.3q-5.8 0-8.9-3.4-2.9-3.3-2.9-10.7v-33.2h-7.3q-1-2-0.5-4.7 5.8 0.1 8.1-2.3 2.4-2.5 4.4-10.4h5.5v11.6h11q1.4 3.1 0 5.8h-11v30.6q0 7 1.1 9.3 1.1 2.3 4.1 2.2 2.6 0 6.3-2.1 1.5 0.9 1.6 3.1-1.4 1.6-4.5 2.9-3 1.3-7 1.3zm-2.8 0q-5.8 0-8.8-3.4-2.9-3.3-2.9-10.7v-33.2h-7.3q-1.1-2-0.5-4.7 5.8 0.1 8.1-2.3 2.4-2.5 4.4-10.4h5.5v11.6h10.9q1.5 3.1 0 5.8h-10.9v30.6q0 7 1 9.3 1.2 2.3 4.2 2.2 2.6 0 6.2-2.1 1.5 0.9 1.6 3.1-1.3 1.6-4.5 2.9-3 1.3-7 1.3zm24.9-71.4q0-2 2.4-4.1 2.4-2.1 5-2.1 2.6 0 4.5 2.4 1.8 2.3 1.8 4.7 0 2.1-2.4 4.2-2.3 2-5 2-2.4 0-4.3-2.3-2-2.4-2-4.8zm14.4 17.7v46.8l6.9 2.1q0.4 2-0.5 3.6-9.4-0.5-11.6-0.5-3.2 0-12.8 0.5-0.3-2 0.2-3.6 5.9-1.4 7.3-2.1v-40.6l-8.6-0.9q-0.3-2.1 0.5-3.6 8.7-1.3 14.6-2.8 1.8 0.1 4 1.1zm-17.2-17.7q0-2 2.4-4.1 2.4-2.1 5-2.1 2.6 0 4.5 2.4 1.9 2.3 1.9 4.7 0 2.1-2.4 4.2-2.3 2-5 2-2.4 0-4.4-2.3-2-2.4-2-4.8zm14.4 17.7v46.8l7 2.1q0.3 2-0.5 3.6-9.4-0.5-11.7-0.5-3.1 0-12.7 0.5-0.3-2 0.2-3.6 5.8-1.4 7.3-2.1v-40.6l-8.7-0.9q-0.3-2.1 0.6-3.6 8.6-1.3 14.6-2.8 1.7 0.1 3.9 1.1zm41.7 55.1l-20.6-50-8-2.1q-0.3-1.9 0.5-3.6 8.3 0.5 12.7 0.5 3.9 0 13.4-0.5 0.4 2-0.2 3.6-5.2 1-7.1 2.1l8.9 22.9q3.1 8.1 4.4 14.2h0.3q2.1-8.1 3.4-11.8l9.9-25.3-8.2-2.1q-0.3-1.9 0.5-3.6 7.3 0.5 10.8 0.5 3.7 0 10.8-0.5 0.3 2-0.2 3.6-5.5 1-7.4 2.1l-19.2 48.7q-2.2 1.1-4.7 1.3zm-2.7 0l-20.6-50-8.1-2.1q-0.3-1.9 0.5-3.6 8.4 0.5 12.8 0.5 3.8 0 13.4-0.5 0.3 2-0.2 3.6-5.2 1-7.2 2.1l9 22.9q3.1 8.1 4.3 14.2h0.4q2-8.1 3.4-11.8l9.9-25.3-8.2-2.1q-0.4-1.9 0.5-3.6 7.3 0.5 10.7 0.5 3.8 0 10.8-0.5 0.4 2-0.2 3.6-5.5 1-7.4 2.1l-19.1 48.7q-2.2 1.1-4.7 1.3zm49.2-15.6q0 4.2 2.2 6.4 2.3 2.1 6.1 2.1 3 0 6.2-1.7 3.3-1.8 5-4.2v-14.1q-10.8 0-15.1 2.6-4.4 2.5-4.4 8.9zm29.7-20.5v27.9q1.6 0.8 7.3 2.1 0.3 2-0.5 3.6-3.9 0.8-8.8 0.8-3.4 0-5.9-0.7l-1.5-5.4h-0.4q-6.3 6.5-15.5 6.5-6.7 0-10.8-3.5-4-3.5-4-9.8 0.1-17.2 29.9-16.6l0.1-9.2q0.1-12.1-9.2-12.2-5.5 0-9.8 1.6l-1.3 11q-2.1 0.7-4.6 0.4-2.2-7.9-2.1-13.5 8.6-4.2 20.6-4.2 9-0.1 12.7 4.6 3.8 4.7 3.8 16.6zm-32.4 20.5q0 4.2 2.1 6.4 2.3 2.1 6.2 2.1 2.9 0 6.1-1.7 3.4-1.8 5-4.2v-14.1q-10.7 0-15.1 2.6-4.3 2.5-4.3 8.9zm29.6-20.5v27.9q1.6 0.8 7.3 2.1 0.4 2-0.5 3.6-3.8 0.8-8.7 0.8-3.5 0-6-0.7l-1.4-5.4h-0.4q-6.3 6.5-15.6 6.5-6.6 0-10.7-3.5-4.1-3.5-4.1-9.8 0.1-17.2 29.9-16.6l0.1-9.2q0.1-12.1-9.1-12.2-5.6 0-9.8 1.6l-1.4 11q-2.1 0.7-4.6 0.4-2.2-7.9-2-13.5 8.6-4.2 20.6-4.2 8.9-0.1 12.7 4.6 3.7 4.7 3.7 16.6zm68.4 35q-14 0-21.7-3.7 0-9.2 2.7-18.1 0.2 0 0.6 0 0.4-0.1 0.7-0.1 1.9 0 3.2 0.6l1.7 13.9q6.6 1.5 11.3 1.5 3.6 0 7.5-0.8 3.8-0.8 6.6-3.4 3-2.6 3-7.1 0-4.1-1.3-6.6-1.1-2.5-5.5-5.4-4.3-3-13.5-7-9.3-4.1-13.2-8.8-3.7-4.8-3.5-12.8 0.1-9.2 7.7-14 7.6-4.8 19-4.8 9.7 0 17.8 3.1 0.3 7.9-3.3 17.6-0.4 0.1-1.3 0.1-1.8 0-3.3-0.6l-1.1-13.8q-4.7-1.4-9.4-1.4-6.9 0-11.5 3-4.6 2.9-4.7 9-0.1 4.8 2.7 7.8 2.9 3 12.2 7.2 6.7 3 10.5 5.1 3.7 2 6.8 4.8 3.1 2.7 4.4 6.2 1.4 3.6 1.4 8.4-0.2 9.7-8 14.9-7.8 5.2-18.5 5.2zm-2.7 0q-14.1 0-21.8-3.7 0-9.2 2.7-18.1 0.2 0 0.6 0 0.5-0.1 0.8-0.1 1.8 0 3.2 0.6l1.7 13.9q6.5 1.5 11.2 1.5 3.7 0 7.5-0.8 3.9-0.8 6.7-3.4 2.9-2.6 2.9-7.1 0-4.1-1.2-6.6-1.2-2.5-5.6-5.4-4.2-3-13.4-7-9.4-4.1-13.2-8.8-3.8-4.8-3.6-12.8 0.1-9.2 7.7-14 7.6-4.8 19.1-4.8 9.7 0 17.7 3.1 0.3 7.9-3.2 17.6-0.4 0.1-1.4 0.1-1.7 0-3.2-0.6l-1.1-13.8q-4.7-1.4-9.4-1.4-6.9 0-11.6 3-4.6 2.9-4.7 9-0.1 4.8 2.7 7.8 2.9 3 12.2 7.2 6.8 3 10.5 5.1 3.8 2 6.8 4.8 3.1 2.7 4.5 6.2 1.3 3.6 1.3 8.4-0.2 9.7-8 14.9-7.8 5.2-18.4 5.2zm49-14.5q0 4.2 2.2 6.4 2.3 2.1 6.1 2.1 2.9 0 6.2-1.7 3.3-1.8 5-4.2v-14.1q-10.8 0-15.1 2.6-4.4 2.5-4.4 8.9zm29.7-20.5v27.9q1.6 0.8 7.3 2.1 0.3 2-0.5 3.6-3.9 0.8-8.8 0.8-3.4 0-5.9-0.7l-1.5-5.4h-0.4q-6.3 6.5-15.5 6.5-6.7 0-10.8-3.5-4-3.5-4-9.8 0.1-17.2 29.9-16.6l0.1-9.2q0.1-12.1-9.2-12.2-5.5 0-9.8 1.6l-1.3 11q-2.1 0.7-4.6 0.4-2.2-7.9-2.1-13.5 8.6-4.2 20.6-4.2 9-0.1 12.7 4.6 3.8 4.7 3.8 16.6zm-32.5 20.5q0 4.2 2.2 6.4 2.3 2.1 6.2 2.1 2.9 0 6.1-1.7 3.4-1.8 5-4.2v-14.1q-10.7 0-15.1 2.6-4.4 2.5-4.4 8.9zm29.7-20.5v27.9q1.6 0.8 7.3 2.1 0.3 2-0.5 3.6-3.8 0.8-8.7 0.8-3.5 0-6-0.7l-1.4-5.4h-0.5q-6.2 6.5-15.5 6.5-6.6 0-10.7-3.5-4.1-3.5-4.1-9.8 0.1-17.2 29.9-16.6l0.1-9.2q0.1-12.1-9.1-12.2-5.6 0-9.8 1.6l-1.4 11q-2.1 0.7-4.6 0.4-2.2-7.9-2.1-13.5 8.7-4.2 20.7-4.2 8.9-0.1 12.7 4.6 3.7 4.7 3.7 16.6zm31.5-44.6v30.2l0.6 0.5q7.1-6.2 15.6-6.2 10.2 0.1 16 7.5 5.9 7.3 5.9 19.7 0 13.3-7.7 20.7-7.7 7.3-20.5 7.3-10.5-0.2-19.8-4v-69.6l-8.6-0.8q-0.3-2.1 0.5-3.7 7-1 13.9-2.8 2 0.1 4.1 1.2zm0.6 36.8v36.3q4.5 2.4 10.4 2.4 7.4 0 11.7-6.2 4.2-6.4 4.2-17.6 0-10.3-3.8-15.7-3.9-5.4-10-5.4-3.6 0-7.3 2-3.7 2-5.2 4.2zm-3.3-36.8v30.2l0.5 0.5q7.1-6.2 15.6-6.2 10.3 0.1 16.1 7.5 5.8 7.3 5.8 19.7 0 13.3-7.7 20.7-7.7 7.3-20.4 7.3-10.5-0.2-19.8-4v-69.6l-8.6-0.8q-0.4-2.1 0.5-3.7 7-1 13.8-2.8 2 0.1 4.2 1.2zm0.5 36.8v36.3q4.6 2.4 10.4 2.4 7.4 0 11.7-6.2 4.3-6.4 4.3-17.6 0-10.3-3.9-15.7-3.8-5.4-10-5.4-3.5 0-7.3 2-3.6 2-5.2 4.2zm93.5 13l-31.5-0.3v2.1q0 10.4 4.2 16.2 4.3 5.8 11.6 5.8 4.7 0 7.5-0.8 2.8-0.9 7.1-3.8 1.6 0.7 1.8 2.5-7.1 7.8-16.7 7.9-12 0-19.2-7.5-7.2-7.5-7.3-20.3 0.1-13.2 7.5-20.5 7.5-7.4 18.4-7.4 8.9 0 13.5 6.1 4.7 5.9 4.7 16.1 0 1.8-0.1 2.7zm-16.7-21.5q-4.9 0-9.1 4.4-4 4.4-5.3 12.6l22.7-1.3q0-8.3-1.8-12-1.8-3.7-6.5-3.7zm13.9 21.5l-31.4-0.3v2.1q0 10.4 4.1 16.3 4.3 5.8 11.6 5.8 4.7 0 7.5-0.8 2.8-1 7.1-3.9 1.6 0.7 1.9 2.5-7.2 7.8-16.8 7.9-12 0-19.2-7.5-7.2-7.5-7.3-20.3 0.1-13.1 7.5-20.4 7.5-7.4 18.5-7.4 8.8 0 13.4 6 4.7 6 4.7 16.2 0 1.8-0.1 2.7zm-16.7-21.6q-4.9 0-9 4.5-4.1 4.4-5.4 12.5l22.8-1.2q0-8.4-1.9-12-1.8-3.8-6.5-3.8zm48.4 14.3v29.9l10.1 2.1q0.3 2-0.5 3.6-9.4-0.5-14.8-0.5-4.2 0-12.7 0.5-0.3-2 0.2-3.6 5.8-1.3 7.3-2.1v-40.6l-8.7-0.9q-0.3-2.1 0.6-3.6 8.6-1.3 14.5-2.8 1.2 0 3.5 1.1v9.5l0.1 0.1q7.7-11.5 15.8-11.5 4.2-0.1 6.9 1.6 0.3 7.7-2.1 15.6-2.6 0.3-4.7-0.4l-1.4-10.4q-8.7 0-14.1 12.4zm-2.7 0v29.9l10.1 2.1q0.3 2-0.6 3.6-9.3-0.5-14.8-0.5-4.1 0-12.7 0.5-0.3-2 0.2-3.6 5.9-1.3 7.3-2.1v-40.6l-8.6-0.9q-0.3-2.1 0.5-3.6 8.7-1.3 14.6-2.8 1.1 0 3.4 1.1v9.5l0.1 0.1q7.7-11.5 15.9-11.5 4.1-0.1 6.8 1.6 0.4 7.7-2 15.6-2.6 0.3-4.7-0.4l-1.5-10.4q-8.6 0-14 12.4z"/></svg>