<svg version="1.2" xmlns="http://www.w3.org/2000/svg" viewBox="0 0 732 732" width="732" height="732"><defs><filter x="-50%" y="-50%" width="200%" height="200%" id="f1" ><feDropShadow dx="-1.3405627774566224" dy="10.918007668054543" stdDeviation="5.416666666666667" flood-color="#a8a8a8" flood-opacity=".6"/></filter><filter x="-50%" y="-50%" width="200%" height="200%" id="f2" ><feDropShadow dx="-1.3405627774566224" dy="10.918007668054543" stdDeviation="5.416666666666667" flood-color="#9d9d9d" flood-opacity=".6"/></filter></defs><style>.a{fill:#8aaba8}.b{filter:url(#f1);fill:#b2d5cf}.c{filter:url(#f2);fill:#b2d5cf}.d{fill:#b2d5cf}</style><path fill-rule="evenodd" class="a" d="m366.8 498.6c-74.2 0-134.2-60-134.2-134.2 0-74.3 60-134.3 134.2-134.3 74.3 0 134.3 60 134.3 134.3 0 74.2-60 134.2-134.3 134.2zm101-125.6h-195.8c0 0 6.7 83.3 100.3 83.3 93.5 0 95.5-83.3 95.5-83.3z"/><path class="b" d="m273.4 210.8l-8.8 47-42.6 19.4 38.9 24.4 6.8 44.5 34.5-28.8 45.7 8.1-18.8-42.6 21.9-40.7-45.7 3.8zm0 0l-8.7 47-42.6 19.4 38.8 24.4 6.9 44.5 34.4-28.8 45.7 8.1-18.7-42.6 21.9-40.7-45.7 3.8z"/><path class="c" d="m465.4 210.3l-32 35.5-46.4-5.6 20.4 41.1-17.3 41.5 44.4-6.6 34.8 30.7 6.1-46.1 40-23.3-41-20.6zm0.2 0.3l-32 35.5-46.4-5.6 20.4 41.1-17.3 41.5 44.4-6.6 34.8 30.8 6.1-46.2 39.9-23.3-40.9-20.6z"/><path class="d" d="m373.8 457c-41.2-0.8-75.3-19.8-75.5-31.3-0.1-11.4 33.1-21 74.3-21.4 41.2-0.3 74.6 8.7 74.7 20.1 0.2 11.5-35.6 33.3-73.5 32.6z"/></svg>