<svg version="1.2" xmlns="http://www.w3.org/2000/svg" viewBox="0 0 732 732" width="100" height="100"><style>.a{fill:none;stroke:#66f;stroke-miterlimit:100;stroke-width:20}.b{fill:#66f}</style><path class="a" d="m366.8 498.6c-74.2 0-134.2-60-134.2-134.2 0-74.3 60-134.3 134.2-134.3 74.3 0 134.3 60 134.3 134.3 0 74.2-60 134.2-134.3 134.2z"/><path class="a" d="m433.7 441.8c0 0-14.8-28.8-64.5-28.8-49.8 0-62.8 28.8-62.8 28.8"/><path class="b" d="m279.5 220.2l-8.2 43.9-39.9 18.2 36.3 22.9 6.5 41.6 32.2-27 42.8 7.6-17.6-39.8 20.6-38.1-42.8 3.5zm0 0l-8.2 44-39.9 18.1 36.3 22.9 6.5 41.6 32.2-26.9 42.8 7.6-17.5-39.9 20.5-38.1-42.8 3.5z"/><path class="b" d="m459.2 219.7l-29.9 33.2-43.5-5.2 19.1 38.4-16.2 38.9 41.6-6.2 32.6 28.8 5.7-43.2 37.4-21.8-38.3-19.3zm0 0l-30 33.2-43.5-5.2 19.1 38.4-16.1 38.9 41.5-6.2 32.6 28.8 5.8-43.2 37.3-21.8-38.3-19.3z"/><path class="a" d="m467.1 373.2h-195.8c0 0 6.7 87.9 100.2 87.9 93.5 0 95.6-87.9 95.6-87.9z"/></svg>