<svg version="1.2" xmlns="http://www.w3.org/2000/svg" viewBox="0 0 732 732" width="100" height="100"><defs><filter x="-50%" y="-50%" width="200%" height="200%" id="f1" ><feDropShadow dx="-1.3405627774566224" dy="10.918007668054543" stdDeviation="5.416666666666667" flood-color="#bcbcbc" flood-opacity="1"/></filter><linearGradient id="P" gradientUnits="userSpaceOnUse"/><linearGradient id="g1" x2="1" href="#P" gradientTransform="matrix(125.141,0,0,131.216,226.428,278.461)"><stop stop-color="#44e3ff"/><stop offset=".02" stop-color="#44e3ff"/><stop offset="1" stop-color="#44e3ff"/></linearGradient><filter x="-50%" y="-50%" width="200%" height="200%" id="f2" ><feDropShadow dx="-1.3405627774566224" dy="10.918007668054543" stdDeviation="5.416666666666667" flood-color="#a1a1a1" flood-opacity="1"/></filter><linearGradient id="g2" x2="1" href="#P" gradientTransform="matrix(124.717,0,0,132.895,386.439,278.799)"><stop stop-color="#44e3ff"/><stop offset=".01" stop-color="#44e3ff"/><stop offset="1" stop-color="#44e3ff"/></linearGradient></defs><style>.a{fill:#e7e8ef}.b{filter:url(#f1);fill:url(#g1)}.c{filter:url(#f2);fill:url(#g2)}.d{fill:#e8ecff}</style><path fill-rule="evenodd" class="a" d="m366.8 498.6c-74.2 0-134.2-60-134.2-134.2 0-74.3 60-134.3 134.2-134.3 74.3 0 134.3 60 134.3 134.3 0 74.2-60 134.2-134.3 134.2zm101-125.6h-195.8c0 0 6.7 83.3 100.3 83.3 93.5 0 95.5-83.3 95.5-83.3z"/><path class="b" d="m276.2 212.9l-8.5 45.5-41.3 18.8 37.7 23.7 6.7 43.2 33.4-28 44.3 7.9-18.2-41.3 21.3-39.5-44.4 3.7zm0 0l-8.5 45.5-41.3 18.9 37.7 23.7 6.7 43.1 33.4-28 44.3 7.9-18.2-41.3 21.3-39.5-44.4 3.7z"/><path class="c" d="m462.5 212.4l-31 34.4-45.1-5.4 19.8 39.8-16.7 40.3 43-6.4 33.8 29.8 5.9-44.7 38.8-22.7-39.8-20zm0.2 0.4l-31 34.4-45.1-5.4 19.8 39.8-16.7 40.3 43-6.4 33.8 29.8 5.9-44.7 38.8-22.6-39.8-20z"/><path class="d" d="m373.8 457c-41.2-0.8-75.3-19.8-75.5-31.3-0.1-11.4 33.1-21 74.3-21.4 41.2-0.3 74.6 8.7 74.7 20.1 0.2 11.5-35.6 33.3-73.5 32.6z"/></svg>