<svg version="1.2" xmlns="http://www.w3.org/2000/svg" viewBox="0 0 345 378" width="345" height="378"><style>tspan{white-space:pre}.a{opacity:1;fill:#fff}.b{fill:#fff}.c{fill:#f4f6f6}.d{fill:none;stroke:#0b1520;stroke-miterlimit:100;stroke-width:8}</style><path fill-rule="evenodd" class="a" d="m169.5 69.2c4.4-0.1 12.7 0.3 18.5 0.7 5.8 0.5 15.4 2.1 21.5 3.6 6 1.5 14.8 4.4 19.5 6.5 4.7 2.1 10.6 5 13.1 6.6 2.6 1.6 6.4 4.1 8.5 5.5 2.2 1.4 7.7 6.1 12.3 10.5 4.6 4.3 10.5 10.6 13.1 13.9 2.6 3.3 7 9.6 9.6 14 2.7 4.4 6.3 10.9 8 14.5 1.7 3.6 4.5 10.1 6.2 14.5 1.7 4.4 3.8 10.9 4.7 14.5 0.9 3.6 2 8.1 2.5 10 0.6 1.9 1 17.9 1 67.5l-3.1 9c-1.7 4.9-7.7 18.6-13.5 30.2-5.7 11.7-10.4 22.2-10.4 23.3 0 1.1 0.8 2.2 1.7 2.4 1 0.3 3.3 2.1 5 4 3 3.3 3.3 4.2 3.3 10.1 0 3.6-0.5 7.4-1 8.5-0.6 1.1-2 3.2-3.3 4.6-1.2 1.4-4.9 4.3-8.2 6.5-3.3 2.2-6.1 4-6.3 3.9-0.1 0-3 1.3-6.5 2.9-3.4 1.6-8.8 4.1-12 5.5-3.1 1.4-6 2.6-6.5 2.6-0.4 0-4.3 1.1-8.7 2.5-4.4 1.4-13.2 3.7-19.5 5.1-6.3 1.4-16.2 3.1-22 3.9-5.8 0.8-16.6 1.5-24 1.5-7.4 0-18.7-0.7-25-1.5-6.3-0.8-16.9-2.5-23.5-3.9-6.6-1.3-16.3-3.7-21.5-5.4-5.2-1.6-11.8-3.9-14.5-5.2-2.8-1.2-7.9-3.6-11.5-5.3-3.5-1.8-8.7-4.7-11.5-6.5-2.7-1.8-6.4-4.6-8-6.1-1.7-1.5-3.8-4.4-4.8-6.4-0.9-2-1.7-5.3-1.7-7.2 0-1.9 0.4-4.6 1-6 0.5-1.4 2.3-4.1 4-6 1.9-2.3 3.9-3.5 5.5-3.5 1.9 0 2.5-0.5 2.5-2.3 0-1.2-3.7-9.4-8.1-18.2-4.5-8.8-9.2-18.7-10.6-22-1.3-3.3-3.5-9.2-4.8-13-1.6-4.7-2.7-11.4-3.4-20.5-0.7-9-0.8-17-0.1-24 0.5-5.8 0.9-15 1-20.5 0-6.7 0.7-12.6 2-18 1.1-4.4 3.5-11.6 5.2-16 1.7-4.4 4.8-11.4 6.8-15.5 2-4.1 4.9-9.8 6.5-12.5 1.6-2.8 3.8-6.4 4.9-8 1.1-1.7 4.8-6.1 8.1-10 3.3-3.8 8.7-9.5 12-12.7 3.3-3.1 8.7-7.7 12-10.1 3.3-2.4 8.7-5.8 12-7.4 3.3-1.7 8.7-4.2 12-5.6 3.3-1.3 7.6-2.9 9.5-3.5 1.9-0.6 6.6-1.9 10.5-2.8 3.8-0.9 10.4-2 14.5-2.4 4.1-0.4 11.1-0.7 15.5-0.8zm-33 48.7c-5 1.2-12.6 3.6-17 5.3-4.4 1.8-11.6 5.1-16 7.5-4.4 2.4-11.1 6.7-14.9 9.6-3.9 2.9-10 8.1-13.6 11.7-3.6 3.6-8.5 9-10.7 12-2.3 3-5.8 8.4-7.8 12-2 3.6-5 9.9-6.5 14-1.5 4.1-3.6 11.3-4.5 16-1.1 5.4-1.8 12.7-1.7 20 0 7.9 0.7 14.4 2.1 20.7 1.2 5.1 2.6 10.5 3.2 12 0.6 1.6 1.6 3.9 2.1 5.3 0.6 1.4 2.1 4.7 3.5 7.5 1.4 2.7 4.6 8.1 7.2 11.9 2.5 3.8 7.3 9.9 10.7 13.5 3.4 3.6 9.2 9.2 13 12.3 3.8 3.2 7.3 5.8 7.9 5.8 0.5 0 2.6 1.3 4.5 2.8 1.9 1.4 7.3 4.5 12 6.8 4.7 2.3 11.2 5 14.5 6.2 3.3 1.1 10.9 3.3 17 4.8 10.2 2.5 12.5 2.7 31.5 2.7 19.9 0.1 20.9 0 33.5-3.3 7.1-1.8 16.6-4.8 21-6.7 4.4-1.9 10.5-4.8 13.5-6.5 3-1.6 9-5.5 13.4-8.6 4.3-3.2 11.3-9.3 15.5-13.7 4.2-4.4 9.6-10.9 12-14.5 2.4-3.6 5.8-9.4 7.6-13 1.8-3.6 4.4-10.3 5.9-15 1.4-4.7 3.1-13.5 3.7-19.5 1-9.3 1-12.8-0.4-22.5-0.8-6.3-2.5-14.4-3.7-18-1.1-3.6-3.5-9.4-5.2-13-1.7-3.6-5.1-9.7-7.6-13.5-2.5-3.9-8.7-11.3-13.8-16.5-5-5.2-11.8-11.3-15-13.5-3.3-2.2-6.1-4.2-6.4-4.5-0.3-0.3-2.3-1.5-4.5-2.7-2.2-1.1-5.8-3.1-8-4.3-2.2-1.2-6.9-3.3-10.5-4.6-3.6-1.3-7.4-2.8-8.5-3.3-1.1-0.4-4.3-1.4-7-2.1-2.8-0.7-7.7-1.9-11-2.6-3.3-0.8-13.2-1.6-22-1.8-8.8-0.3-19.2-0.1-23 0.3-3.9 0.4-11.1 1.8-16 3zm-74 208.3c0.2 1.3 1.3 3.2 2.3 4.3 1.1 1.1 3 2.9 4.3 4 1.3 1.1 4.8 3.5 7.6 5.3 2.9 1.7 8.1 4.4 11.5 5.8 3.5 1.5 10.6 4.1 15.8 5.9 5.2 1.8 15.8 4.6 23.5 6.3 7.7 1.7 18.5 3.6 24 4.2 5.5 0.7 17.9 1.2 27.5 1.2 9.6 0 21.3-0.5 26-1.2 4.7-0.6 14.1-2.5 21-4.2 6.9-1.7 15.9-4.3 20-6 4.1-1.6 9.7-4 12.5-5.5 2.7-1.4 7.7-4.2 11-6.2 3.2-2 7.1-4.7 8.5-6.1 1.4-1.4 3.2-3.5 3.8-4.8 0.7-1.2 1.2-3.6 1.2-5.2v-3c-5.8 4.9-10.4 8.2-14 10.5-3.6 2.3-9.4 5.6-13 7.4-3.6 1.9-7.4 3.7-8.5 4.1-1.1 0.5-4.5 1.7-7.5 2.8-3 1.2-10.9 3.4-17.5 5-6.6 1.7-16.3 3.6-21.5 4.2-5.2 0.7-18.3 1.3-29 1.2-12.5 0-23.4-0.6-30.5-1.7-6.1-0.9-11.2-1.8-11.5-2-0.3-0.2-4.1-1.3-8.5-2.5-4.4-1.1-10.5-3-13.5-4.1-3-1.2-9.6-4.1-14.5-6.5-5-2.4-10.8-5.4-13.1-6.7-2.2-1.2-5.6-3.4-7.5-4.9-1.9-1.5-4.1-3.3-4.9-4-0.8-0.8-2-1.7-2.7-2.1-0.6-0.4-1.6 0-2.2 0.8-0.6 0.8-0.9 2.5-0.6 3.7z"/><text style="transform:matrix(.805,0,0,.805,813.444,386.904)" ></text><path class="b" d="m269.3 259.7c0 0 0-26.9 1.7-30.6 1.8-3.7 13.1-12.5 13.1-12.5 0 0 15 32.1-14.8 43.1z"/><path class="c" d="m172.5 127.6c0 0 0.1 7-7.9 7.9 0 0 7.9 2.3 7.9 7.3m0-15.2c0 0 0.1 7-7.9 7.9 0 0 7.9 2.3 7.9 7.3m0-15.2c0 0-0.1 7 8 7.9 0 0-8 2.3-8 7.3m0-15.2c0 0-0.1 7 8 7.9 0 0-8 2.3-8 7.3"/><path class="d" d="m95-115.9"/><path class="b" d="m74.5 259.7c0 0 0-26.9-1.7-30.6-1.8-3.7-13.1-12.5-13.1-12.5 0 0-15 32.1 14.8 43.1z"/><path class="c" d="m74.5 193.3c0 0-26 0.4-22 42.1 3.8 39.2 24.9 39.1 24.9 39.1 0 0-2.6-9.7-2.9-15.9 0 0-17.3-7.8-17.3-29.3 0-21.4 17.3-22.9 17.3-22.9zm-99.9-7.4"/><path class="b" d="m268.9 193.3c0 0 26 0.4 22 42.1-3.7 39.2-24.8 39.1-24.8 39.1 0 0 2.5-9.7 2.8-15.9 0 0 17.4-7.8 17.4-29.3 0-21.4-17.4-22.9-17.4-22.9zm99.9-7.4"/><path class="c" d="m32 186.9l0.8 28.3 1.3 49.4c0 0-15.5 1.3-16.5-11.9-1.8-24.2-1.2-49.3-1.2-49.3 0 0-1.7-17.6 15.6-16.5zm0 0l0.8 28.3 1.3 49.4c0 0-15.5 1.3-16.5-11.9-1.8-24.2-1.2-49.3-1.2-49.3 0 0-1.7-17.6 15.6-16.5z"/><path class="c" d="m310.6 186.9l-0.7 28.3-1.3 49.4c0 0 15.5 1.3 16.5-11.9 1.8-24.2 1.1-49.3 1.1-49.3 0 0 1.7-17.6-15.6-16.5zm0 0l-0.7 28.3-1.3 49.4c0 0 15.5 1.3 16.5-11.9 1.8-24.2 1.1-49.3 1.1-49.3 0 0 1.7-17.6-15.6-16.5z"/><path class="c" d="m279.3 1.8c-0.6 0.6-1.1 1.8-1 2.6 0 0.8 0.5 2 1.1 2.6 0.6 0.6 1.8 1 2.5 1.1 0.8 0 2-0.6 2.6-1.3 0.7-0.6 1.3-1.8 1.3-2.6 0-0.7-0.5-1.8-1.1-2.4-0.6-0.6-1.8-1.1-2.7-1.1-0.9 0-2.1 0.5-2.7 1.1zm-223.1 4.4c-0.7 0.7-1.3 1.7-1.3 2.3 0 0.6 0.4 1.7 0.9 2.5q1 1.4 2.8 1.4 1.8 0 2.8-1.4c0.5-0.8 0.9-1.9 0.9-2.5 0-0.6-0.6-1.6-1.2-2.3-0.7-0.7-1.8-1.2-2.5-1.2-0.7 0-1.8 0.5-2.4 1.2zm-23 25.9c-0.1 0.5-0.6 2.2-1 3.9-0.4 1.7-1.2 4-1.8 5.2-0.6 1.2-2.5 3.4-4.1 4.9-2.4 2.2-4.2 3.2-8.4 4.5-2.9 0.9-5.4 2-5.4 2.3 0 0.3 0.8 0.8 1.7 1 1 0.2 3.2 0.8 5.1 1.3 1.9 0.5 4.6 1.7 6 2.7 1.4 1 3.3 2.9 4.1 4.4 0.9 1.4 2.1 4.6 2.7 7.2 0.7 2.7 1.5 4.6 2 4.6 0.4 0 1.1-1.5 1.5-3.7 0.4-2 1.4-5.1 2.3-6.8 0.9-1.6 2.3-3.8 3.3-4.7 1-0.9 3-2.2 4.5-2.9 1.5-0.6 4.2-1.5 6-1.8 1.8-0.4 3.2-1 3.2-1.3 0-0.3-1.6-1.1-3.5-1.6-2-0.6-4.6-1.5-5.8-2.2-1.3-0.6-3.3-2.1-4.5-3.3-1.2-1.1-2.6-3.2-3.3-4.6-0.6-1.3-1.5-4-2-6-0.5-1.9-1.2-3.6-1.6-3.7-0.4-0.1-0.8 0.2-1 0.6zm260.8 3.8c-0.2 1.1-0.9 2.9-1.5 4.1-0.6 1.2-2.1 3.1-3.4 4.2-1.3 1.1-3.9 2.4-5.6 2.9-2.4 0.6-3.2 1.2-3.1 1.9 0.1 0.6 1.3 1.3 3.2 1.9 1.7 0.5 4 1.5 5.1 2.4 1.1 0.8 2.6 2.8 3.4 4.4 0.8 1.6 1.7 3.8 1.9 4.9 0.2 1.1 0.7 1.9 1.1 1.8 0.4-0.2 1.1-1.3 1.5-2.7 0.3-1.3 1.2-3.5 2-5 0.7-1.4 2.2-3.2 3.3-3.9 1.1-0.8 3.2-1.7 4.7-2.1 1.6-0.4 2.9-1.1 3-1.6 0.1-0.5-0.8-1.1-2.5-1.6-1.4-0.5-3.6-1.5-4.7-2.2-1.1-0.7-2.7-2.4-3.5-3.8-0.7-1.3-1.7-3.6-2-5-0.4-1.6-1.1-2.6-1.6-2.6-0.5 0-1 0.8-1.3 2zm39.4 65.1c-0.2 1.1-0.9 2.8-1.7 3.8-0.8 0.9-2.9 2.4-4.6 3.2-1.9 0.8-3.2 1.7-3.1 2.2 0.2 0.4 1.2 1 2.3 1.3 1.2 0.2 2.9 1 3.8 1.6 1.1 0.8 2.2 2.5 2.9 4.4 0.6 1.8 1.4 3.3 1.7 3.4 0.3 0.1 0.8-1 1.3-2.6 0.4-1.5 1.4-3.5 2.1-4.3 0.8-0.9 2.5-2 3.8-2.4 1.4-0.5 2.6-1.2 2.7-1.7 0.1-0.5-0.9-1.2-2.6-1.9-1.6-0.6-3.4-1.8-4.1-2.7-0.7-1-1.5-2.8-1.8-4-0.3-1.3-1-2.3-1.5-2.3-0.5 0-1 0.8-1.2 2zm-327.9 8.2c-0.3 0.2-0.5 1-0.4 1.8 0.1 1.1-0.2 1.5-1.3 1.5-0.8 0-1.9 0.3-2.6 0.7-0.7 0.5-1 1.2-0.7 1.9 0.2 0.6 1.1 1.1 2.3 1.2 1.7 0.1 2.1 0.5 2.5 2.2 0.3 1.1 0.8 2.1 1.3 2.4 0.4 0.2 1.1-0.2 1.5-0.8 0.4-0.7 0.8-1.8 0.8-2.6 0-1.1 0.3-1.3 2.1-1.3 1.8 0 2.2-0.3 2.2-1.3q0-1.2-2.2-2.1-2.1-0.9-2.4-2.5c-0.2-0.9-0.8-1.5-1.5-1.5-0.6 0-1.3 0.2-1.6 0.4z"/><path fill-rule="evenodd" class="c" d="m133.8 144.8c2.2 0 5.6 0.3 7.5 0.7 2 0.4 4.9 1.1 6.4 1.6 1.6 0.5 3.7 1.2 4.7 1.7 1.1 0.4 3.6 1.9 5.7 3.3 2.1 1.4 4.8 3.5 6 4.8 1.3 1.3 2.7 2.8 3.2 3.5 0.6 0.6 1.8 2.3 4.5 6.2l0.7-1.1c0.4-0.6 1.6-2.2 2.7-3.7 1.1-1.4 3.3-3.9 5-5.4 1.6-1.6 4.4-3.7 6.1-4.8 1.6-1.1 3.9-2.4 4.9-2.8 1.1-0.5 3.5-1.3 5.5-1.9 1.9-0.7 5.4-1.4 7.8-1.7 2.3-0.3 6-0.4 8.2-0.2 2.2 0.1 6.3 0.8 9 1.5 2.7 0.7 5.7 1.5 6.6 1.9 0.9 0.4 2.6 1.2 3.8 1.7 1.2 0.6 3.6 2 5.5 3.2 1.8 1.2 4.5 3.4 6.1 4.8 1.6 1.5 4.1 4.3 5.5 6.4 1.5 2 3.5 5.2 4.4 7 0.9 1.8 2.2 4.9 2.8 6.8 0.7 2 1.6 5.2 2.1 7.1 0.5 2.4 0.8 5.9 0.8 10.4 0 4.7-0.3 8-0.8 10.4-0.4 2-1.4 5.3-2.2 7.4-0.8 2.1-2.2 5.4-3.2 7.3-1 2-1.9 3.7-2 3.8-0.2 0.1-0.9 1.1-1.6 2.2-0.7 1.1-1.3 2.3-1.3 2.5 0 0.3 1.1 2.2 2.5 4.4 1.4 2.1 3 4.7 3.5 5.8 0.6 1 1.5 3.3 2.2 4.9 0.7 1.7 1.6 4.4 1.9 6 0.4 1.5 0.9 3.9 1.2 5.3 0.3 1.3 0.5 3.7 0.5 5.2 0 1.5-0.3 4.4-0.7 6.5-0.4 2.1-0.9 4.6-1.2 5.7-0.3 1-1.5 3.8-2.6 6.2-1.2 2.4-3.2 6-4.6 8-1.3 2.1-4.5 5.8-7 8.3-2.4 2.5-6.2 5.8-8.3 7.3-2.2 1.5-4.8 3.3-6 4-1.1 0.7-3.6 2.1-5.5 3.2-2 1-5.5 2.6-7.9 3.6-2.4 0.9-6 2.2-7.8 2.8-1.9 0.6-5.2 1.6-7.3 2.1-2 0.6-5.2 1.3-6.9 1.7-1.8 0.4-6.6 1.2-10.7 1.7-5.6 0.8-8.8 1-13.3 0.8-3.3-0.2-7.6-0.5-9.7-0.8-2.1-0.3-6.3-1-9.2-1.5-3-0.5-7-1.4-8.8-1.9-1.8-0.5-5-1.5-7.1-2.1-2.1-0.7-5.7-2-8-2.9-2.4-0.9-5.4-2.3-6.9-3-1.4-0.8-3.4-1.9-4.5-2.5-1-0.7-2.5-1.5-3.3-2-0.8-0.4-3.1-2.1-5.2-3.7-2.1-1.5-5.6-4.6-7.8-6.9-2.2-2.2-5.1-5.6-6.4-7.6-1.3-1.9-3.1-4.7-3.8-6.1-0.8-1.4-2-4.1-2.7-5.9-0.8-1.8-1.7-5.1-2-7.3-0.4-2.2-0.7-5.9-0.7-8.1 0-2.2 0.2-5.4 0.5-7.1 0.3-1.7 1-4.6 1.7-6.6 0.7-1.9 2-5 2.9-6.8 0.9-1.9 2.7-4.9 4.1-6.8 2.4-3.3 2.4-3.4 1.7-4.9-0.4-0.8-1-1.7-1.4-2-0.3-0.3-0.9-1.1-1.2-1.7-0.3-0.7-1.2-2.4-2-3.8-0.8-1.4-1.9-3.9-2.4-5.4-0.5-1.6-1.5-4.4-2.1-6.2-1-3-1.1-4.1-1.1-24.1l1.6-4.7c0.9-2.6 2.3-6.2 3.2-8.1 1-1.8 2.6-4.7 3.8-6.3 1.1-1.7 3.3-4.4 4.8-6 1.5-1.6 4-3.9 5.5-5 1.6-1.2 4.3-2.9 6.1-3.9 1.7-0.9 4.3-2.1 5.6-2.7 1.4-0.5 3.7-1.3 5.1-1.7 1.5-0.4 4.1-1 5.9-1.3 1.9-0.3 5.2-0.6 7.4-0.7zm74.4 32.7c-1.3 0.4-3.4 1.3-4.7 2-1.3 0.7-3.3 2.3-4.5 3.5-1.2 1.2-2.9 3.3-3.6 4.6-0.8 1.3-1.9 3.8-2.4 5.6-0.6 1.9-1.1 4.4-1.1 5.6v2.2c9.7-0.4 12.6-0.6 12.7-0.6 0 0 0.4-1.3 0.9-2.9 0.4-1.6 1.2-3.4 1.7-4.2 0.6-0.7 1.9-1.8 2.9-2.5 1.6-0.9 2.6-1.1 6.2-1.1 3.8 0 4.4 0.1 6.4 1.3 1.1 0.7 2.6 2 3.1 2.7 0.6 0.8 1.4 2.8 1.9 4.4l0.9 3.1c3.3-0.5 6.1-0.6 8.4-0.6h4.1c-0.4-4.6-1-7.1-1.5-8.5-0.6-1.5-1.4-3.2-1.9-3.9-0.5-0.8-0.9-1.5-0.9-1.7 0-0.2-0.9-1.4-2.1-2.6-1.2-1.2-2.3-2.2-2.6-2.2-0.2 0-0.4-0.2-0.4-0.4 0-0.2-1.3-1-2.8-1.8-1.5-0.8-4.1-1.8-5.8-2.2-1.7-0.4-4-0.8-5.2-1-1.1-0.1-3.3 0-4.7 0.2-1.4 0.1-3.7 0.6-5 1zm-93.8 2.1c-1.7 0.9-3.8 2.2-4.8 3.1-0.9 0.9-2.5 2.7-3.5 4.2-1.1 1.4-2.4 3.8-3 5.4-0.6 1.6-1.2 4.3-1.4 6l-0.3 3.2h12.7c0.5-2.4 1.1-4 1.6-5.2 0.5-1.2 1.6-2.7 2.3-3.4 0.7-0.7 2.5-1.6 3.9-2.1 1.9-0.6 3.4-0.7 5.4-0.5 1.5 0.2 3.5 0.7 4.5 1.2 0.9 0.5 2.2 1.4 2.7 2.1 0.6 0.6 1.4 1.7 1.8 2.5 0.3 0.8 0.8 2.3 1 3.4l0.2 2h13.5c-0.5-3.5-0.9-5.5-1.3-6.8-0.4-1.3-1.2-3.5-1.9-4.8-0.6-1.3-2.4-3.7-3.9-5.3-2.2-2.4-3.7-3.5-6.8-5-3.9-1.8-4.2-1.9-9.7-2-3.1-0.1-6.7 0-7.8 0.2-1.2 0.2-3.5 1-5.2 1.8zm43.2 32c-0.3 0.3-1 1.3-1.5 2.2-0.6 0.9-1.1 2.3-1.1 3 0 0.7 0.3 1.9 0.7 2.6 0.4 0.7 1.2 1.7 1.8 2.3 0.6 0.6 2 1.2 3.2 1.4 1.6 0.2 2.6 0.1 4-0.6 1-0.5 2.2-1.6 2.8-2.5 0.5-1 0.9-2.3 0.9-3.1 0-0.8-0.3-2-0.6-2.6-0.3-0.7-0.9-1.6-1.4-2.1-0.4-0.4-1.5-1.1-2.4-1.5-0.9-0.4-1.9-0.7-2.3-0.6-0.4 0-1.4 0.2-2.2 0.5-0.7 0.3-1.6 0.8-1.9 1zm18.4 1.7c-0.7 1.1-1.1 2.4-1.1 3.6 0 1 0.4 2.5 0.9 3.3 0.5 0.8 1.7 1.8 2.7 2.3 1.4 0.7 2.4 0.8 4 0.6 1.2-0.2 2.6-0.8 3.2-1.4 0.6-0.6 1.4-1.6 1.8-2.3 0.3-0.7 0.6-2 0.7-2.9 0-0.8-0.5-2.2-1.1-3.2-0.6-0.9-1.8-1.9-2.5-2.3-0.8-0.3-2.1-0.7-2.8-0.8-0.8-0.1-2.2 0.2-3.1 0.7-0.9 0.4-2.1 1.5-2.7 2.4zm-61.2 28.2c-1.9 0.4-5.1 1.4-7 2.2-2 0.8-4.5 2.1-5.6 2.9-1 0.8-2.4 2.1-2.9 2.9-0.5 0.8-1.4 2.7-2 4.3-0.8 2.4-1 3.5-0.8 7.5 0.2 3.3 0.6 5.8 1.4 8.1 0.6 1.8 2.1 4.9 3.2 6.8 1.2 1.9 3.4 4.9 5 6.6 1.5 1.7 4.2 4.3 5.9 5.7 1.7 1.5 4.3 3.4 5.7 4.3 1.4 0.9 3.1 1.9 3.8 2.3 0.6 0.3 2.3 1.2 3.8 1.9 1.4 0.8 3.9 1.9 5.6 2.5 1.7 0.7 4.5 1.7 6.2 2.2 1.7 0.5 4.9 1.4 7.1 1.9 2.2 0.5 5.4 1.2 7.1 1.4 1.6 0.3 5.9 0.8 9.4 1.1 3.5 0.3 9 0.4 12.1 0.2 3.1-0.2 8.3-0.6 11.6-1 3.2-0.4 8.1-1.2 10.8-1.7 2.8-0.5 6.5-1.4 8.3-1.9 1.8-0.6 4.9-1.5 6.9-2.2 1.9-0.6 6.1-2.4 9.2-3.9 3.1-1.5 7.4-3.9 9.4-5.2 2.1-1.4 5.9-4.5 8.3-7 2.5-2.5 4.9-5.2 5.3-6 0.4-0.8 1.4-2.6 2.2-4.1 0.8-1.5 1.8-4.1 2.3-5.7 0.4-1.6 0.7-4.4 0.8-6.3 0-1.8-0.3-4.4-0.6-5.9-0.4-1.4-1.3-3.6-2.1-4.9-0.8-1.3-2.1-2.9-2.9-3.6-0.8-0.6-2.8-1.9-4.5-2.7-1.7-0.8-4.9-1.9-7.1-2.5-2.2-0.5-6.1-1.2-8.6-1.4-2.6-0.3-27.8-2.7-44-2.8-16.3-0.1-31.8 0.3-33.9 0.4-2.1 0.1-27.4 3.1-29.4 3.6zm54 3.1v24.3l-7.1-0.4c-3.9-0.2-9.1-0.5-16-1.3l-0.2-22.2 5.2-0.1c2.9-0.1 8.1-0.2 18.1-0.3zm4.6-0.2h4.3c2.4 0 7.9 0.1 20.2 0.6l-0.2 22-4.2 0.5c-2.4 0.3-7.8 0.7-20.1 1.2v-12.1zm-32.9 0.8v10.6c0 5.8-0.1 10.6-0.3 10.7-0.2 0.1-2.9-0.2-6-0.6-3.2-0.5-6.7-1-10.2-1.7v-8.8c0-8.9 0-8.9 1-9.1 0.5-0.1 2.8-0.4 5.2-0.6 2.3-0.2 5.6-0.4 10.3-0.5zm61.8 0h2.8c1.6 0 5.2 0.2 13.3 1.1v17.9l-1.2 0.3c-0.6 0.1-2.3 0.4-3.7 0.6-1.4 0.2-4.3 0.7-6.4 1-2 0.4-4 0.7-4.3 0.7-0.4 0-0.5-2.4-0.5-10.8zm22.3 1.7c0.3 0 2 0.5 3.7 1 1.8 0.6 4 1.5 5.1 2 1 0.6 2.4 1.7 3.1 2.5 0.8 0.8 1.7 2.6 2.2 4 0.4 1.4 0.6 2.7 0.4 2.8-0.2 0.2-2 0.8-4 1.4-2 0.6-5.1 1.4-6.9 1.9-1.8 0.5-3.4 0.9-3.7 0.9-0.2 0-0.4-3-0.4-8.3 0-6.3 0.1-8.2 0.5-8.2zm-105 0.4v8.1c0 7.3 0 8-0.7 8-0.4 0-2.6-0.4-5-0.9-2.3-0.5-5.2-1.2-8.6-2.1v-2.1c0-1.3 0.3-2.8 0.9-3.9 0.5-1 1.4-2.2 2-2.8 0.6-0.5 1.8-1.3 2.8-1.8 0.9-0.5 2.8-1.2 4.2-1.6 1.4-0.5 3-0.8 4.4-0.9zm119.2 18.1c0.3 0 0.6 0.2 0.6 0.4 0 0.2-0.3 1.5-0.7 2.9-0.4 1.3-1.3 3.5-2 4.9-0.7 1.4-1.9 3.4-2.8 4.5-0.8 1-2.2 2.6-3.2 3.5-0.9 0.9-2.6 2.4-3.7 3.3-1.1 0.9-2.2 1.6-2.4 1.6-0.3 0-0.5-3.1-0.5-17.3l1.4-0.4c0.8-0.2 2.7-0.7 4.3-1.1 1.7-0.3 4.2-1 5.8-1.4 1.5-0.5 2.9-0.8 3.2-0.9zm-132.5 1.5c0.2 0.1 1.8 0.5 3.4 0.8 1.6 0.4 4.5 1.1 9.7 2.3l0.1 8.5c0.1 7.4 0.1 8.6-0.5 8.6-0.3 0-2.1-1.5-3.9-3.3-1.8-1.8-3.8-4-4.4-4.8-0.6-0.8-1.7-2.4-2.3-3.6-0.6-1.1-1.6-3.3-2.2-4.9-0.5-1.5-0.9-3-0.7-3.3 0.1-0.3 0.5-0.5 0.8-0.3zm18.5 3.6c0.2 0 1.8 0.3 3.7 0.7 1.8 0.3 5.3 0.8 11.9 1.6l0.1 12.2c0 7.9-0.1 12.2-0.4 12.2-0.2 0-1.2-0.3-2.2-0.7-1-0.3-2.8-1-3.9-1.5-1.2-0.4-3.2-1.3-4.5-1.9-1.3-0.6-3-1.6-5.5-3.1l-0.1-9.4c0-5.2 0.1-9.6 0.3-9.8 0.2-0.1 0.5-0.3 0.6-0.3zm93.6 0l-0.2 19.7-4.5 2c-2.4 1.1-5.4 2.4-6.6 2.8-1.1 0.5-2.7 1-4.8 1.4l0.2-23.5 4-0.6c2.2-0.3 5.4-0.8 7-1.1 1.6-0.3 3.4-0.6 4.9-0.7zm-72.9 2.9l4.4 0.3c2.5 0.1 7.7 0.4 18.6 0.9l0.3 2.7c0.1 1.5 0.2 7.2 0.2 12.7 0 5.5-0.1 10.2-0.3 10.5-0.2 0.5-1.6 0.6-6.2 0.4-3.3-0.1-7.8-0.5-10-0.9-2.2-0.4-4.7-0.9-7.2-1.5zm52.5 0.1v23.9l-4.1 1c-2.3 0.5-6.1 1.2-8.4 1.5-2.3 0.4-6 0.8-12.1 1.3v-26.2l1.6-0.3c0.9-0.2 3.8-0.4 6.5-0.4 2.7 0 6.2-0.2 7.8-0.4 1.6-0.1 4.3-0.3 8.7-0.4z"/></svg>